<?xml version="1.0" encoding="UTF-8"?><svg id="Layer_1" xmlns="http://www.w3.org/2000/svg" viewBox="0 0 2378.96 512"><rect x="-3.43" y="0" width="512" height="512" rx="89.62" ry="89.62" style="fill:#0d47a1;"/><g><path d="m375.61,188.06c1.66-1.24,3.32-2.49,4.98-3.73,1.06-.79,2.06-1.68,3.2-2.35.46-.27,1.58-.31,1.71-.08.29.52.44,1.52.13,1.92-1.34,1.73-2.87,3.33-4.33,4.96-1.04,1.17-2.1,2.32-3.15,3.48l.51.75c1.49-.61,2.97-1.22,4.46-1.82.61-.25,1.21-.63,1.85-.7.55-.06,1.14.23,1.71.37-.23.55-.31,1.33-.73,1.6-1.85,1.2-3.88,2.12-5.69,3.37-3.24,2.24-6.37,4.64-9.55,6.96-.89.65-1.74,1.39-2.71,1.89-6.74,3.46-12.02,8.75-17.03,14.19-7.29,7.92-15.58,14.28-25.4,18.7-3.14,1.41-6.04,3.35-9.1,4.96-4.63,2.44-8.02,1.64-11.15-2.53-.44-.59-.87-1.2-1.2-1.85-2.71-5.31-5.73-10.31-9.8-14.82-4.35-4.83-5.99-11.2-7.48-17.71-3.23.44-6.43.65-8.77,3.34-.34.39-.66.85-1.09,1.09-3.54,1.95-4.24,4.97-4,8.79.19,2.96-.52,5.99-.9,8.98-.77,6.12-4.03,10.66-9.11,13.93-2.52,1.63-5.19,3.03-7.98,4.65.54.44,1.06.9,1.62,1.31,14.82,10.82,27.34,23.89,38.04,38.75.86,1.19,1.58,2.48,2.39,3.71,2.59,3.94,2.33,7.74-.51,11.44-.81,1.05-1.62,2.09-2.46,3.11-3.28,4-7.21,6.34-12.69,6.3-5.87-.04-11.76.5-17.62,1.06-10.24.97-20.12-1.03-29.85-3.67-14.06-3.81-28.43-4.54-42.84-5.19-.61-.03-1.56.66-1.85,1.26-1.87,3.83-3.35,7.87-5.44,11.56-1.64,2.9-3.78,5.59-6.03,8.06-14.38,15.81-32.59,26.7-49.94,38.7-6.11,4.23-11.53,9.26-15.6,15.44-1.86,2.83-2.68,6.47-3.49,9.86-.74,3.13-.89,6.4-1.2,9.63-.34,3.62,2.64,7.96,6.14,8.89,1.71.46,2.9,1.32,3.28,3.11.04.21.02.45.07.66.29,1.11,1.19,2.67.77,3.21-.62.8-2.15,1.09-3.34,1.2-3.36.32-6.74.48-10.12.62-3.18.13-5.57-1.25-6.95-4.11-1.62-3.37-3.52-6.68-4.59-10.23-1.54-5.1-4.41-9.29-7.77-13.19-5.11-5.92-4.75-9.11,1.83-13.52,4.63-3.1,9.5-5.92,13.79-9.44,5.79-4.75,10.04-10.89,13.77-17.39,3.47-6.06,7.06-12.05,10.66-18.04,5.53-9.2,13.53-15.37,23.54-19.07,1.5-.55,2.99-1.25,4.32-2.14,3.33-2.23,4.41-5.59,4.78-9.46.65-6.73,1.29-13.49,2.51-20.14,1.54-8.37,5.21-16.05,8.7-23.75.3-.66.58-1.33.95-2.19-.48-.11-.79-.23-1.12-.24-27.3-1.03-54.28,1.7-80.84,7.87-20.73,4.81-38.98,15.17-56.12,27.53-4.57,3.29-8.94,6.86-13.94,10.71,3.11-4.57,4.88-9.03,5.29-13.93.21-2.48.29-5.01.04-7.48-.16-1.6.23-2.58,1.38-3.61,8.91-7.99,19.08-13.99,29.92-18.92,18.06-8.22,37.1-12.7,56.73-14.94,20.49-2.33,41-1.86,61.52-.72.73.04,1.46,0,2.41,0,.47-1.58,1.02-3.23,1.46-4.92,3.26-12.28,10.3-21.51,21.9-27,9.81-4.64,17.29-12.11,24.52-19.91.53-.57.97-1.24,1.55-1.98-4.15-2.38-8.52-3.26-12.91-3.31-11.62-.13-23.24.04-34.86.19-10.44.14-20.88.71-31.31.53-7.38-.13-14.59-1.83-21.33-5.08-8.6-4.14-9.95-6.85-7.84-16.1.62-2.71,1.59-5.34,2.3-7.68,2.57,2.53,4.85,5.33,7.65,7.42,5,3.73,10.99,5.16,17.06,6.16,10.12,1.66,20.26.7,30.4.26,16.35-.7,32.68-.71,48.79,2.83,1.51.33,2.99.76,4.47,1.21,1.46.45,2.9.98,4.8,1.62,3.05-11.97,7.7-23.14,15.58-32.97-1.24-.38-2.28-.67-3.3-1.02-8.44-2.96-13.67-9.13-17.06-17.12-.32-.74-.58-1.51-.86-2.27-1.43-3.8-2.45-4.17-5.52-1.57-5.23,4.42-11.21,7.14-17.8,8.87-5.66,1.49-11.4,2.77-16.29,6.45-3.96,2.98-6.58,6.4-6.48,11.57.09,4.3-1.01,8.19-3.8,11.68-1.03,1.29-.91,3.45-1.48,5.16-.34,1.02-.99,1.93-1.5,2.9-.87-.88-2.18-1.62-2.52-2.67-.48-1.48-.26-3.18-.32-4.79-.03-.88.05-1.77-.04-2.65-.25-2.56-1.15-3.1-3.18-1.57-3.4,2.57-6.61,5.38-9.92,8.08-1.08.88-2.11,1.89-3.33,2.51-.7.35-1.75.02-2.64,0,.15-.84.02-1.94.5-2.48,2.05-2.3,4.36-4.38,6.43-6.67,1.38-1.52,2.52-3.25,3.76-4.88-.2-.22-.4-.44-.6-.66-.82.34-1.7.6-2.46,1.04-3.24,1.89-6.39,3.95-9.71,5.68-1.14.59-3.56.95-3.91.43-1.14-1.73.96-2.42,1.97-3.25,2.62-2.14,5.39-4.09,8.1-6.13.74-.56,1.44-1.17,2.16-1.76-.07-.2-.13-.39-.2-.59-1.44.28-2.92.42-4.3.88-2.37.79-4.66,1.8-7,2.67-.82.3-1.7.57-2.56.6-.57.02-1.52-.3-1.66-.7-.19-.55-.02-1.62.4-1.92,1.53-1.11,3.17-2.1,4.86-2.94,3.12-1.56,6.32-2.99,9.4-4.72-4.25-1.92-8.95.6-13.03-1.48-.03-.26-.05-.52-.08-.79.9-.35,1.78-.82,2.72-1.02,2.59-.53,5.19-1.08,7.82-1.37,2.28-.25,4.3-.9,5.92-2.54,2.57-2.59,5.8-3.67,9.3-4.12,2.27-.29,4.12-1.25,5.84-2.79,7.03-6.28,14.26-12.32,21.19-18.7,5.1-4.7,10.92-7.57,17.71-8.76,5.14-.9,10.23-2.1,15.35-3.08,3.61-.69,6.46.41,9.01,3.27,2.57,2.87,5.43,5.75,8.72,7.64,8.09,4.63,14.13,11.21,19.41,18.65.9,1.27,1.84,1.99,3.48,2.22,7.7,1.11,14,4.68,18.65,11.04.34.46,1.42.87,1.9.67,3.67-1.46,7.47-2.76,10.83-4.77,2.09-1.25,3.56-3.6,5.15-5.58,2.52-3.14,4.57-6.73,7.44-9.49,4.92-4.75,11.02-5.95,17.62-4.01,4.84,1.43,9.02,4.02,12.41,7.73,4.41,4.82,4.73,10.74,3.96,16.82-.22,1.74-.79,3.44-1.16,5.16-.66,3.01-2.4,5.06-5.14,6.48-.88.46-1.66,1.61-1.95,2.6-.78,2.68-1.26,5.44-1.88,8.16-.49,2.14-1.13,2.42-3.07,1.34-.64-.36-1.21-.98-1.88-1.12-.76-.15-1.84-.18-2.36.25-1.15.95-2.05,2.22-3.04,3.36-.1.11-.17.35-.25.34-2.79-.12-3.28,2.68-4.97,3.94-1.93,1.44-3.59,1.64-5.39.03-1.79-1.61-3.32-3.51-5.3-5.65-1.19,1.67-2.49,3.38-3.62,5.2-.22.36.01,1.32.36,1.67,6.98,7.05,7.11,15.43,4.68,24.25-.41,1.48-.35,2.53.55,3.81,3.04,4.33,4.19,9.16,3.54,14.44-.21,1.7-.03,3.45-.03,5.14.61.04.8.11.88.05,6.2-5,13.51-7.61,21-9.92,6.63-2.04,11.61-6.47,16-11.65.98-1.16,1.39-2.4.7-3.86-1.09-2.32-.75-4.67-.43-7.12.3-2.28-.11-4.64-.05-6.97.02-1,.44-1.98.67-2.98.85.41,2.15.59,2.48,1.26,1.25,2.5,2.18,5.15,3.27,7.83,3.59-2.24,6.19-6.01,8.57-9.98.53-.88.79-1.99,1.48-2.69.62-.63,1.65-.84,2.51-1.23.2.85.81,1.88.53,2.52-1.17,2.68-2.67,5.22-3.92,7.87-.44.92-.53,2-.78,3.01.25.1.5.21.74.31.65-.54,1.35-1.04,1.95-1.64,2.38-2.41,4.68-4.9,7.13-7.23.48-.46,1.49-.36,2.26-.52.01.73.32,1.66,0,2.16-1.56,2.4-3.35,4.65-4.96,7.02-.81,1.19-1.42,2.52-2.12,3.79.26.2.51.41.77.61Zm-145.12,92.2c-8.47-3.1-17.54-6.12-25.22-11.78-2.68,5.91-5.33,11.76-8.03,17.73,5.47.4,10.92,1.03,16.44-.98,5.56-2.03,11.36-3.39,16.81-4.97Zm37.63-63.44c-.27-.21-.53-.42-.8-.63-1.68.81-3.48,1.44-5.02,2.45-2.67,1.77-5,4.11-7.8,5.58-2.53,1.32-4.66,2.69-6.27,5.14-1.18,1.79-3.09,3.08-4.67,4.61-.6.59-1.16,1.22-1.74,1.83.2.28.41.57.61.85,5.31-2.45,10.8-4.58,15.86-7.46,2.9-1.65,5.35-4.3,7.57-6.89,1.22-1.43,1.53-3.63,2.25-5.49Z" style="fill:#fff;"/><g><path d="m327.72,310.38h1.69v38.85h-1.69v-38.85Zm3.38,0h1.69v38.85h-1.69v-38.85Zm3.38,0h1.69v38.85h-1.69v-38.85Zm20.27,0h1.69v38.85h-1.69v-15.23h-15.2v15.23h-1.69v-38.85h1.69v15.18h15.2v-15.18Zm0,18.56v-1.69h-15.2v1.69h15.2Zm0,3.38v-1.69h-15.2v1.69h15.2Zm3.38-21.94h1.69v38.85h-1.69v-38.85Zm3.38,0h1.69v38.85h-1.69v-38.85Zm3.38,0h1.69v38.85h-1.69v-38.85Z" style="fill:#fff; stroke:#fff; stroke-miterlimit:10;"/><path d="m386.72,325.58h-2.84c-1.21,0-2.07-.31-2.6-.93-.53-.62-.8-1.43-.8-2.45,0-2.25,1.68-3.38,5.04-3.38,3.16,0,5.54.47,7.13,1.41l-1.36,1.03c-1.09-.5-3.02-.75-5.77-.75-1.34,0-2.25.15-2.71.45-.46.3-.69.71-.69,1.24s.12.95.38,1.24.71.45,1.38.45h2.91c2.11,0,4.02.36,5.71,1.08,1.7.72,3.09,1.7,4.19,2.94,1.09,1.24,1.93,2.67,2.51,4.29.58,1.62.87,3.35.87,5.2,0,1.5-.21,2.92-.63,4.27-.42,1.35-1.06,2.58-1.91,3.71s-1.88,2.1-3.07,2.92-2.62,1.46-4.27,1.92c-1.65.46-3.44.69-5.36.69-3.02,0-5.85-.46-8.48-1.37-2.64-.92-4.83-2.19-6.58-3.84l1.36-1.01c1.59,1.44,3.59,2.55,5.99,3.34,2.4.79,4.97,1.18,7.71,1.18,2.14,0,4.08-.31,5.81-.93,1.73-.62,3.15-1.47,4.27-2.55,1.12-1.08,1.98-2.33,2.58-3.75.6-1.42.9-2.96.9-4.6,0-2.17-.44-4.14-1.31-5.9s-2.21-3.19-4-4.28-3.91-1.64-6.35-1.64Zm-2.84,8.45h2.58c1.2,0,2.07.31,2.6.94.53.62.8,1.44.8,2.44,0,2.25-1.68,3.38-5.04,3.38-3.17,0-5.56-.47-7.16-1.41l1.36-1.03c1.09.5,3.03.75,5.79.75,1.35,0,2.25-.15,2.71-.45.46-.3.69-.71.69-1.24s-.13-.93-.39-1.23c-.26-.31-.73-.46-1.42-.46h-2.53c-2.16,0-4.11-.35-5.85-1.06-1.74-.7-3.18-1.67-4.29-2.91-1.12-1.24-1.97-2.67-2.57-4.29-.59-1.63-.89-3.38-.89-5.25,0-1.5.21-2.92.63-4.27.42-1.34,1.06-2.58,1.91-3.71.85-1.13,1.88-2.1,3.07-2.92,1.2-.82,2.62-1.46,4.27-1.92,1.65-.46,3.44-.69,5.36-.69,3.02,0,5.84.46,8.47,1.37,2.63.92,4.82,2.19,6.57,3.84l-1.36,1.01c-1.6-1.44-3.59-2.55-5.98-3.34s-4.96-1.18-7.7-1.18c-2.14,0-4.08.31-5.81.93-1.73.62-3.15,1.47-4.27,2.55s-1.98,2.33-2.58,3.75c-.6,1.42-.9,2.96-.9,4.6,0,2.21.45,4.19,1.34,5.96s2.25,3.19,4.08,4.26,4,1.61,6.5,1.61Zm0-6.76h2.67c3.17,0,5.66.97,7.45,2.91s2.69,4.35,2.69,7.23-1.04,5.35-3.12,7.26c-2.08,1.92-5,2.87-8.75,2.87-2.5,0-4.84-.34-7.01-1.03-2.17-.69-3.98-1.66-5.42-2.91l1.31-1.06c1.28,1.05,2.9,1.86,4.84,2.44,1.95.58,4.04.87,6.28.87,3.3,0,5.82-.79,7.57-2.37,1.74-1.58,2.62-3.6,2.62-6.08s-.73-4.46-2.19-6.05c-1.46-1.6-3.55-2.39-6.28-2.39h-2.65c-2.28,0-4-.62-5.14-1.88-1.14-1.25-1.71-2.88-1.71-4.88s.71-3.63,2.12-4.88c1.42-1.25,3.54-1.88,6.37-1.88,1.99,0,3.83.23,5.54.69,1.7.46,3.11,1.12,4.22,1.98l-1.34,1.03c-1.96-1.34-4.76-2.02-8.42-2.02-2.36,0-4.09.47-5.17,1.4s-1.63,2.15-1.63,3.67.4,2.76,1.21,3.68c.8.92,2.12,1.38,3.95,1.38Zm0,3.38h2.58c2.28,0,4,.63,5.14,1.9s1.71,2.89,1.71,4.86-.71,3.63-2.12,4.88c-1.42,1.25-3.54,1.88-6.37,1.88-1.99,0-3.83-.23-5.55-.69-1.71-.46-3.12-1.12-4.23-1.98l1.34-1.03c1.96,1.35,4.77,2.02,8.45,2.02,2.36,0,4.09-.46,5.17-1.4,1.09-.93,1.63-2.15,1.63-3.67s-.41-2.74-1.22-3.67c-.81-.93-2.13-1.4-3.96-1.4h-2.56c-3.21,0-5.71-.96-7.52-2.87s-2.71-4.34-2.71-7.26,1.04-5.35,3.12-7.26,5-2.87,8.75-2.87c2.5,0,4.84.34,7,1.03,2.17.69,3.97,1.66,5.41,2.91l-1.31,1.06c-1.28-1.05-2.89-1.86-4.83-2.44-1.94-.58-4.03-.87-6.26-.87-3.3,0-5.82.79-7.57,2.37-1.75,1.58-2.62,3.61-2.62,6.08s.73,4.48,2.21,6.06c1.47,1.59,3.58,2.38,6.33,2.38Z" style="fill:#fff; stroke:#fff; stroke-miterlimit:10;"/><path d="m405.49,313.12v36.11h-1.69v-38.85h2.02l23.81,38.85h-1.95l-22.19-36.11Zm1.69,4.81l1.69,2.86v28.43h-1.69v-31.3Zm.59-7.55h1.97l23.88,38.85h-1.97l-23.88-38.85Zm2.79,13.16l1.69,2.84v22.85h-1.69v-25.69Zm1.2-13.16h1.99l23.86,38.85h-2.02l-23.84-38.85Zm2.18,18.7l1.69,2.79v17.36h-1.69v-20.15Zm1.78-18.7h1.97l22.15,36.11v-36.11h1.69v38.85h-1.99l-23.81-38.85Zm15.67,20.15l-1.69-2.79v-17.36h1.69v20.15Zm3.38,5.54l-1.69-2.84v-22.85h1.69v25.69Zm3.38,5.61l-1.69-2.86v-28.43h1.69v31.3Z" style="fill:#fff; stroke:#fff; stroke-miterlimit:10;"/><path d="m483.47,332.15v-21.77h1.69v21.77c0,3.38-.88,6.51-2.65,9.4-1.77,2.89-4.17,5.17-7.19,6.85-3.03,1.68-6.31,2.52-9.87,2.52s-6.84-.84-9.87-2.52c-3.03-1.68-5.42-3.96-7.19-6.85s-2.65-6.02-2.65-9.4v-21.77h1.69v21.77c0,2.3.48,4.5,1.43,6.62.95,2.11,2.24,3.93,3.85,5.46,1.61,1.52,3.53,2.74,5.76,3.65s4.56,1.36,6.98,1.36,4.75-.45,6.98-1.36c2.23-.91,4.15-2.12,5.76-3.65,1.61-1.53,2.89-3.34,3.85-5.46.95-2.11,1.43-4.32,1.43-6.62Zm-3.38,0v-21.77h1.69v21.77c0,2.08-.43,4.07-1.3,5.97-.87,1.9-2.03,3.54-3.48,4.92-1.46,1.38-3.19,2.47-5.21,3.28s-4.13,1.22-6.33,1.22-4.32-.41-6.33-1.22-3.75-1.91-5.21-3.28c-1.46-1.38-2.62-3.01-3.48-4.92s-1.3-3.89-1.3-5.97v-21.77h1.69v21.77c0,2.47.66,4.76,1.97,6.86,1.31,2.1,3.09,3.77,5.34,5,2.24,1.23,4.69,1.84,7.33,1.84s5.09-.61,7.33-1.84c2.24-1.23,4.02-2.89,5.34-5s1.97-4.39,1.97-6.86Zm-3.38,0v-21.77h1.69v21.77c0,1.63-.34,3.18-1.03,4.66-.69,1.48-1.61,2.76-2.77,3.84-1.16,1.08-2.53,1.94-4.13,2.57-1.59.63-3.27.95-5.02.95s-3.42-.32-5.02-.95c-1.59-.63-2.97-1.49-4.13-2.57s-2.08-2.36-2.77-3.84c-.69-1.48-1.03-3.03-1.03-4.66v-21.77h1.69v21.77c0,1.86.5,3.59,1.51,5.17,1.01,1.59,2.38,2.84,4.11,3.77,1.73.92,3.61,1.38,5.64,1.38s3.91-.46,5.64-1.38c1.73-.92,3.1-2.18,4.11-3.77,1.01-1.59,1.51-3.31,1.51-5.17Zm-3.38,0v-21.77h1.69v21.77c0,2.38-.94,4.41-2.82,6.1s-4.13,2.53-6.76,2.53-4.88-.84-6.76-2.53-2.81-3.72-2.81-6.1v-21.77h1.69v21.77c0,1.91.77,3.54,2.31,4.9,1.54,1.36,3.4,2.04,5.57,2.04s4.03-.68,5.57-2.04c1.54-1.36,2.31-3,2.31-4.9Z" style="fill:#fff; stroke:#fff; stroke-miterlimit:10;"/><path d="m203.94,406.89h-1.83l15.37-38.85h1.83l15.34,38.85h-1.81l-14.45-36.58-14.45,36.58Zm14.66-32.56l.96,2.16-12.01,30.41h-1.81l12.86-32.56Zm1.88,4.46l.89,2.32-10.16,25.78h-1.83l11.1-28.11Zm1.78,4.65l.89,2.37-8.33,21.09h-1.81l9.24-23.46Zm-4.6,18.82l.66-1.69h11.07l.7,1.69h-12.43Zm1.31-3.38l.66-1.69h8.42l.73,1.69h-9.81Zm1.31-3.38l.68-1.69h5.77l.68,1.69h-7.13Zm2.63-27.45l15.37,38.85h-1.83l-15.34-38.85h1.81Zm3.64,0l15.37,38.85h-1.81l-15.37-38.85h1.81Zm19,38.85h-1.83l-15.34-38.85h1.81l15.37,38.85Z" style="fill:#fff; stroke:#fff; stroke-miterlimit:10;"/><path d="m247.74,374.79v-1.69h25.34v1.69h-25.34Zm0,3.38v-1.69h25.34v1.69h-25.34Zm0,3.38v-1.69h25.34v1.69h-25.34Zm6.76.92h1.69v24.42h-1.69v-24.42Zm3.38,0h1.69v24.42h-1.69v-24.42Zm3.38,0h1.69v24.42h-1.69v-24.42Zm3.38,0h1.69v24.42h-1.69v-24.42Z" style="fill:#fff; stroke:#fff; stroke-miterlimit:10;"/><path d="m276.78,373.1h1.69v33.78h-1.69v-33.78Zm3.38,0h1.69v33.78h-1.69v-33.78Zm3.38,0h1.69v33.78h-1.69v-33.78Zm16.92,0h1.69v33.78h-1.69v-13.51h-11.85v13.51h-1.69v-33.78h1.69v11.82h11.85v-11.82Zm0,15.2v-1.69h-11.85v1.69h11.85Zm0,3.38v-1.69h-11.85v1.69h11.85Zm3.38-18.58h1.69v33.78h-1.69v-33.78Zm3.38,0h1.69v33.78h-1.69v-33.78Zm3.38,0h1.69v33.78h-1.69v-33.78Z" style="fill:#fff; stroke:#fff; stroke-miterlimit:10;"/><path d="m316.69,373.1h1.69v33.78h-1.69v-33.78Zm3.38,0h1.69v33.78h-1.69v-33.78Zm3.38,0h1.69v33.78h-1.69v-33.78Zm3.38,0h1.69v25.34h12.46v1.69h-12.46v1.69h12.46v1.69h-12.46v1.69h12.46v1.69h-14.15v-33.78Z" style="fill:#fff; stroke:#fff; stroke-miterlimit:10;"/><path d="m346.39,406.89h-1.69v-33.78h1.69v33.78Zm3.38,0h-1.69v-33.78h1.69v33.78Zm3.38,0h-1.69v-33.78h1.69v33.78Zm3.38-8.45h16.16v1.69h-16.16v1.69h16.16v1.69h-16.16v1.69h16.16v1.69h-17.85v-33.78h17.85v1.69h-16.16v1.69h16.16v1.69h-16.16v1.69h16.16v1.69h-16.16v4.2h15.23v1.69h-15.23v1.69h15.23v1.69h-15.23v1.69h15.23v1.69h-15.23v4.25Z" style="fill:#fff; stroke:#fff; stroke-miterlimit:10;"/><path d="m375.98,374.79v-1.69h25.34v1.69h-25.34Zm0,3.38v-1.69h25.34v1.69h-25.34Zm0,3.38v-1.69h25.34v1.69h-25.34Zm6.76.92h1.69v24.42h-1.69v-24.42Zm3.38,0h1.69v24.42h-1.69v-24.42Zm3.38,0h1.69v24.42h-1.69v-24.42Zm3.38,0h1.69v24.42h-1.69v-24.42Z" style="fill:#fff; stroke:#fff; stroke-miterlimit:10;"/><path d="m405.02,373.1h1.69v33.78h-1.69v-33.78Zm3.38,0h1.69v33.78h-1.69v-33.78Zm3.38,0h1.69v33.78h-1.69v-33.78Zm3.38,0h1.69v33.78h-1.69v-33.78Z" style="fill:#fff; stroke:#fff; stroke-miterlimit:10;"/><path d="m453.47,378.41l-1.36,1.01c-1.58-1.96-3.52-3.5-5.81-4.62-2.29-1.13-4.74-1.69-7.36-1.69-2.28,0-4.47.45-6.56,1.34s-3.89,2.09-5.4,3.6-2.71,3.31-3.6,5.4-1.34,4.27-1.34,6.56.45,4.47,1.34,6.56c.89,2.09,2.09,3.89,3.6,5.4s3.31,2.71,5.4,3.6,4.27,1.34,6.56,1.34c2.61,0,5.06-.56,7.36-1.69,2.29-1.13,4.23-2.67,5.81-4.62l1.34,1.03c-1.74,2.16-3.87,3.86-6.39,5.1-2.53,1.24-5.23,1.87-8.11,1.87-2.52,0-4.92-.49-7.21-1.48s-4.27-2.31-5.92-3.96c-1.66-1.66-2.98-3.63-3.96-5.92-.99-2.29-1.48-4.7-1.48-7.21s.49-4.92,1.48-7.21c.99-2.29,2.31-4.27,3.96-5.92,1.66-1.66,3.63-2.98,5.92-3.96s4.7-1.48,7.21-1.48c2.88,0,5.58.62,8.12,1.87,2.53,1.24,4.67,2.95,6.4,5.13Zm-2.63,2.11l-1.31,1.06c-1.27-1.58-2.82-2.82-4.67-3.73-1.85-.91-3.82-1.36-5.91-1.36-1.83,0-3.58.36-5.24,1.07-1.67.71-3.1,1.67-4.32,2.89-1.21,1.21-2.17,2.65-2.89,4.32-.71,1.67-1.07,3.41-1.07,5.24s.36,3.58,1.07,5.24c.71,1.67,1.67,3.11,2.89,4.32,1.21,1.21,2.65,2.17,4.32,2.88,1.67.71,3.41,1.07,5.24,1.07,2.1,0,4.07-.45,5.91-1.36,1.85-.91,3.4-2.15,4.67-3.73l1.27,1.1c-1.42,1.77-3.17,3.16-5.23,4.16s-4.27,1.51-6.62,1.51c-2.06,0-4.04-.4-5.91-1.21-1.88-.81-3.49-1.88-4.84-3.24-1.35-1.35-2.43-2.97-3.24-4.84s-1.21-3.85-1.21-5.91.4-4.04,1.21-5.91,1.88-3.49,3.24-4.84c1.35-1.35,2.97-2.43,4.84-3.24,1.88-.81,3.85-1.21,5.91-1.21,2.36,0,4.58.51,6.65,1.53s3.82,2.42,5.24,4.2Zm-2.65,2.11l-1.34,1.03c-.94-1.19-2.1-2.12-3.48-2.79-1.38-.67-2.86-1.01-4.42-1.01-2.8,0-5.19.99-7.17,2.98s-2.97,4.37-2.97,7.16.99,5.17,2.97,7.16,4.37,2.98,7.17,2.98c1.56,0,3.04-.34,4.43-1.02,1.39-.68,2.56-1.61,3.5-2.8l1.29,1.08c-1.09,1.38-2.45,2.46-4.06,3.25-1.61.79-3.33,1.18-5.16,1.18-2.14,0-4.12-.53-5.94-1.58s-3.25-2.49-4.3-4.3-1.58-3.79-1.58-5.94.53-4.12,1.58-5.94,2.49-3.25,4.3-4.31c1.81-1.06,3.79-1.58,5.94-1.58,1.83,0,3.55.39,5.17,1.18,1.62.79,2.98,1.88,4.07,3.27Zm-2.63,2.11l-1.36,1.03c-1.36-1.69-3.11-2.53-5.26-2.53-1.86,0-3.45.66-4.77,1.98s-1.98,2.91-1.98,4.77.66,3.45,1.98,4.77,2.91,1.98,4.77,1.98c1.05,0,2.03-.23,2.94-.68.92-.45,1.69-1.08,2.33-1.88l1.31,1.1c-.78.99-1.75,1.76-2.91,2.31-1.16.55-2.38.83-3.68.83-2.33,0-4.32-.82-5.97-2.47s-2.47-3.64-2.47-5.97.82-4.32,2.47-5.97,3.64-2.48,5.97-2.48c1.31,0,2.55.29,3.71.86,1.16.57,2.13,1.35,2.91,2.33Z" style="fill:#fff; stroke:#fff; stroke-miterlimit:10;"/><path d="m472.19,387.44h-2.67c-4.57,0-6.85-1.38-6.85-4.15,0-1.25.71-2.28,2.12-3.08,1.42-.81,3.54-1.21,6.37-1.21,1.99,0,3.83.23,5.54.69,1.7.46,3.11,1.12,4.22,1.98l-1.34,1.03c-1.96-1.34-4.76-2.02-8.42-2.02-2.35,0-4.07.24-5.16.73-1.09.49-1.64,1.11-1.64,1.88,0,.89.38,1.53,1.15,1.9.77.38,2.1.56,4.01.56h2.67c4.35,0,7.7.99,10.06,2.97,2.36,1.98,3.54,4.62,3.54,7.94,0,1.52-.34,2.94-1.01,4.27-.67,1.33-1.64,2.5-2.9,3.51-1.26,1.01-2.87,1.81-4.82,2.39s-4.13.88-6.52.88c-3.02,0-5.84-.46-8.47-1.37-2.63-.91-4.82-2.19-6.57-3.83l1.36-1.01c1.59,1.44,3.59,2.55,5.98,3.34,2.39.79,4.96,1.18,7.7,1.18,4.22,0,7.54-.89,9.95-2.67,2.41-1.78,3.61-4.01,3.61-6.69,0-2.83-1.03-5.08-3.1-6.73s-5-2.49-8.82-2.49Zm0,6.76h-2.67c-4.35,0-7.7-.99-10.07-2.97s-3.54-4.62-3.54-7.94c0-1.52.34-2.94,1.01-4.27.67-1.33,1.64-2.5,2.9-3.51,1.26-1.01,2.87-1.81,4.82-2.39,1.95-.59,4.13-.88,6.52-.88,3.02,0,5.84.46,8.47,1.37,2.63.92,4.82,2.19,6.57,3.84l-1.36,1.01c-1.6-1.44-3.59-2.55-5.98-3.34s-4.96-1.18-7.7-1.18c-4.22,0-7.54.89-9.95,2.67s-3.61,4.01-3.61,6.69c0,2.83,1.03,5.08,3.1,6.73,2.06,1.66,5,2.49,8.82,2.49h2.58c4.63,0,6.94,1.38,6.94,4.15,0,1.25-.71,2.28-2.12,3.08-1.42.81-3.54,1.21-6.37,1.21-1.99,0-3.83-.23-5.54-.69-1.71-.46-3.11-1.12-4.22-1.98l1.34-1.03c1.96,1.35,4.76,2.02,8.42,2.02,2.35,0,4.07-.24,5.16-.73,1.09-.49,1.64-1.11,1.64-1.88,0-.89-.38-1.53-1.15-1.9-.77-.38-2.1-.56-4.01-.56Zm0-3.38h-2.67c-3.29,0-5.81-.67-7.58-2.01-1.77-1.34-2.65-3.18-2.65-5.53,0-2.19,1.04-4.02,3.12-5.48,2.08-1.46,5-2.19,8.75-2.19,2.5,0,4.84.34,7,1.03,2.17.69,3.97,1.66,5.41,2.91l-1.31,1.06c-1.28-1.05-2.89-1.86-4.83-2.44-1.94-.58-4.03-.87-6.26-.87-3.3,0-5.82.56-7.57,1.69-1.75,1.13-2.62,2.56-2.62,4.29,0,1.88.72,3.32,2.15,4.33s3.56,1.51,6.39,1.51h2.58c3.33,0,5.88.67,7.66,2.01,1.77,1.34,2.66,3.18,2.66,5.53,0,2.19-1.04,4.02-3.12,5.48-2.08,1.46-5,2.19-8.75,2.19-2.5,0-4.84-.34-7-1.03-2.17-.69-3.97-1.66-5.41-2.91l1.31-1.06c1.28,1.05,2.89,1.86,4.83,2.44s4.03.87,6.26.87c3.3,0,5.82-.56,7.57-1.69s2.62-2.56,2.62-4.29c0-1.88-.72-3.32-2.15-4.33-1.43-1.01-3.56-1.51-6.39-1.51Z" style="fill:#fff; stroke:#fff; stroke-miterlimit:10;"/></g></g><g><path d="m649.9,190.48h28.73v41.86h-28.73v8.06h-13.65v-97.63h10.79c1.56-6.24,3.12-13.52,3.64-19.11l17.16,1.43c-2.08,6.11-4.55,12.48-6.89,17.68h16.38v39.26h-27.43v8.45Zm13.78-34.71h-13.78v13.26h13.78v-13.26Zm-13.78,47.71v15.86h15.08v-15.86h-15.08Zm73.45-59.8v11.57h24.57v56.16c0,5.98-.91,9.75-4.68,12.09-3.64,2.34-8.19,2.47-14.82,2.47-.26-4.03-2.08-9.75-3.9-13.26,3.25.13,6.5.13,7.54.13,1.17,0,1.56-.39,1.56-1.69v-41.99h-10.27v75.79h-14.43v-75.79h-9.62v55.9h-14.04v-69.81h23.66v-11.57h-28.08v-14.04h70.33v14.04h-27.82Z"/><path d="m833.46,174.49c8.58,25.35,24.31,45.76,48.62,55.64-3.9,3.25-8.97,10.14-11.44,14.56-23.53-11.05-38.61-30.03-48.75-55.12-7.02,21.71-21.06,41.99-48.62,55.25-2.47-4.29-7.02-9.88-11.57-13.13,29.77-13.26,42.12-34.84,47.19-57.2h-44.72v-15.99h47.32c1.3-12.22,1.17-24.05,1.3-34.71h16.9c-.13,10.66-.26,22.62-1.56,34.71h51.09v15.99h-45.76Z"/><path d="m936.29,134.31c-3.12,11.44-7.15,25.22-10.53,35.62,7.15,10.53,8.71,19.89,8.71,27.69,0,8.58-1.69,14.17-5.59,17.29-1.82,1.56-4.29,2.47-7.15,2.86-2.21.39-5.07.39-7.67.26-.13-3.77-1.04-9.49-3.25-13.26,2.08.13,3.51.13,4.81.13,1.17,0,2.47-.39,3.38-1.17,1.3-1.17,1.95-4.16,1.95-7.93,0-6.37-1.3-15.08-7.93-24.44,2.34-8.19,4.81-19.5,6.63-28.34h-9.88v102.05h-13.39v-115.83h27.82l2.21-.65,9.88,5.72Zm30.94-6.63c-2.73,8.58-6.11,17.42-10.01,25.61v91.26h-13.52v-67.99c-1.82,2.6-3.77,5.07-5.72,7.28-1.69-3.25-6.24-10.4-8.97-13.39,10.27-11.31,19.37-28.86,24.44-46.54l13.78,3.77Zm6.11,47.58c4.42,8.97,9.36,20.54,11.7,28.21l-12.35,5.98c-2.21-7.8-7.15-19.89-11.18-28.86l11.83-5.33Zm39.52-8.97h-9.49v60.71c0,7.67-1.43,11.96-5.85,14.56-4.29,2.47-10.79,3.12-20.02,3.12-.52-4.29-2.73-11.05-4.68-15.34,5.72.13,11.31.13,13.13.13,1.95-.13,2.6-.65,2.6-2.6v-60.58h-26.78v-14.3h26.78v-25.74h14.82v25.74h9.49v14.3Z"/><path d="m1135.06,146.14v64.87h-16.25v-6.5h-29.38v40.56h-16.38v-40.56h-29.25v7.15h-15.6v-65.52h44.85v-22.49h16.38v22.49h45.63Zm-62.01,43.16v-27.95h-29.25v27.95h29.25Zm45.76,0v-27.95h-29.38v27.95h29.38Z"/><path d="m1208.25,213.1c.52,3.64,1.82,9.1,2.86,11.7-18.85,11.05-22.36,13.52-24.44,15.86l-.13-1.04c-.91-3.9-2.86-10.14-4.81-13.39,2.08-1.17,3.64-2.99,3.64-7.67v-15.08h-5.72c-1.56,17.55-5.59,31.98-20.93,41.08-1.56-3.25-5.46-8.45-8.58-10.66,12.22-6.89,15.08-17.68,16.12-30.42h-7.8v-29.77h46.8v29.77h-6.76v14.95l9.75-5.33Zm1.17-43.81h-56.55v-11.96h11.44c-1.04-3.38-2.34-6.89-3.51-10.01l12.22-2.6c1.69,3.9,3.51,8.58,4.68,12.61h8.58c1.3-4.16,2.86-8.97,3.51-12.74l13.78,2.34-4.42,10.4h10.27v11.96Zm-.52-25.35h-53.69v-11.7h19.76c-.78-2.34-1.56-4.55-2.34-6.5l13.65-2.73c1.3,2.73,2.47,6.24,3.51,9.23h19.11v11.7Zm-37.83,49.66h20.67v-9.88h-20.67v9.88Zm87.88,38.22c.78,0,1.69-.13,2.08-.39.52-.26.91-1.04,1.3-2.6.26-1.69.39-5.33.52-10.01,2.34,2.21,7.02,4.55,10.53,5.72-.26,4.94-.91,10.4-1.82,12.61-.91,2.21-2.6,3.9-4.55,4.81-1.82.91-4.94,1.3-7.15,1.3h-7.15c-3.12,0-6.76-.91-8.84-3.12-2.34-2.08-3.25-4.68-3.25-12.74v-24.05h-5.2c-1.82,18.72-6.76,33.41-25.87,42.51-1.56-3.38-5.2-8.45-8.06-10.79,15.6-6.76,19.24-17.81,20.54-31.72h-7.67v-29.51h50.05v29.51h-10.14v24.44c0,1.82,0,2.86.39,3.51.39.39.91.52,1.69.52h2.6Zm10.53-62.53h-57.98v-12.09h10.27c-1.04-3.38-2.08-6.89-3.25-9.88l12.09-2.47c1.69,3.9,3.38,8.45,4.42,12.35h8.06c1.43-4.16,2.99-8.97,3.77-12.61l13.39,2.21c-1.56,3.77-3.12,7.15-4.55,10.4h13.78v12.09Zm-2.73-25.35h-53.82v-11.7h18.85c-.65-2.21-1.43-4.42-2.08-6.37l13.52-2.47c1.17,2.6,2.34,5.85,3.25,8.84h20.28v11.7Zm-39.78,49.4h23.92v-9.62h-23.92v9.62Z"/><path d="m1379.33,227.79h-11.05c10.79,2.99,21.45,6.24,28.73,8.45l-12.87,8.58c-8.45-3.38-22.88-8.19-37.05-11.96l6.11-5.07h-24.05l6.76,4.68c-10.66,5.33-28.21,10.27-42.77,12.35-2.08-2.73-6.24-7.28-8.84-9.88,10.4-1.3,22.62-4.16,31.59-7.15h-11.7v-27.69c-4.94,2.6-10.01,4.81-15.21,6.5-2.08-3.38-5.98-8.45-9.1-11.05,10.4-2.6,21.06-7.15,29.38-12.74h-24.83v-10.53h31.33v-3.64h-15.86v-7.8h15.86v-3.9h-17.42v-4.29h-13.13v-21.71h49.53c-.78-1.82-1.56-3.51-2.34-5.07l15.34-3.9c1.56,2.6,3.25,5.98,4.42,8.97h46.02v21.71h-13v4.29h-17.55v3.9h16.64v7.8h-16.64v3.64h31.33v10.53h-21.58c7.54,4.55,16.77,8.19,25.87,10.27-3.25,2.73-7.41,8.19-9.49,11.7-4.94-1.56-9.75-3.64-14.43-6.24v29.25Zm-63.57-79.17v-4.42h14.17v4.42h23.27v-4.42h14.43v4.42h15.86v-6.11h-84.24v6.11h16.51Zm48.75,49.53v-3.77h-46.15v3.77h46.15Zm0,11.05v-3.9h-46.15v3.9h46.15Zm-46.15,7.02v4.16h46.15v-4.16h-46.15Zm8.32-33.41c-1.17,1.43-2.47,2.73-3.77,4.03h40.04c-1.43-1.3-2.73-2.6-4.03-4.03h-32.24Zm3.25-21.97h23.27v-3.9h-23.27v3.9Zm0,11.44h23.27v-3.64h-23.27v3.64Z"/><path d="m1531.3,143.28h-22.62c3.9,2.99,7.8,6.37,10.01,8.84l-8.58,7.67h17.29v22.62h-15.86v-11.05h-80.21v11.05h-14.95v-22.62h4.68c-2.34-2.73-7.15-7.8-10.01-10.01,7.67-6.76,14.95-17.03,18.98-27.3l13.65,3.9c-.65,1.69-1.43,3.51-2.34,5.2h28.6v10.79c5.72-5.2,10.79-12.48,13.65-19.89l13.91,3.64c-.65,1.82-1.43,3.64-2.34,5.46h36.01l.13,11.7Zm-81.77,16.51c-2.6-3.51-7.8-8.58-11.83-12.09l4.81-4.29h-7.67c-4.03,6.37-8.71,11.96-13,16.38h27.69Zm-1.82,51.87h70.33v33.54h-15.47v-3.51h-54.86v3.51h-15.73v-68.51h79.17v28.99h-63.44v5.98Zm0-23.79v6.76h48.36v-6.76h-48.36Zm0,35.1v7.28h54.86v-7.28h-54.86Zm27.17-73.19c-2.47-2.08-5.2-4.16-7.28-5.46l1.17-.91h-17.16c2.86,2.6,5.85,5.59,7.67,7.8l-9.36,8.58h14.82c-1.04-2.47-2.08-5.2-3.38-7.41l13.52-2.6Zm32.11,10.01c-3.25-3.64-8.71-8.32-12.87-11.7l5.59-4.81h-11.57c-2.73,3.9-5.98,7.54-9.1,10.14-.91-.91-2.21-1.95-3.64-3.12,1.82,2.73,3.77,6.37,4.94,9.49h26.65Z"/><path d="m1585.77,219.08c-14.3,5.07-29.9,10.01-42.38,14.04l-3.51-15.73c4.55-1.17,9.88-2.6,15.86-4.29v-30.55h-13.13v-14.17h13.13v-22.88h-14.3v-14.43h42.9v14.43h-13.91v22.88h11.7v14.17h-11.7v26c4.29-1.3,8.58-2.6,12.74-4.03l2.6,14.56Zm77.22,7.93v14.04h-83.59v-14.04h35.88v-12.35h-26.91v-13.91h26.91v-11.18h-26v-60.45h67.86v60.45h-26.13v11.18h27.56v13.91h-27.56v12.35h31.98Zm-59.8-73.97h13.39v-10.79h-13.39v10.79Zm0,23.4h13.39v-11.18h-13.39v11.18Zm39.26-34.19h-12.87v10.79h12.87v-10.79Zm0,23.01h-12.87v11.18h12.87v-11.18Z"/><path d="m1713.95,213.1c-7.67,9.88-19.24,20.54-28.6,26.91-3.25-2.73-9.62-7.8-13.52-10.14,9.75-5.33,20.15-14.17,26.39-22.36l15.73,5.59Zm26-10.4v25.74c0,7.67-1.56,11.57-7.28,14.04-5.46,2.34-12.87,2.47-22.49,2.47-.78-4.55-3.38-11.05-5.59-15.08,6.63.26,14.56.26,16.77.26,2.21-.13,2.86-.52,2.86-2.08v-24.05c-29.51,2.34-35.36,3.25-39.91,4.94-.65-2.73-2.86-10.14-4.55-13.91,5.2-.78,10.14-2.73,18.07-6.63,4.03-1.69,11.57-5.46,20.54-10.79-20.8,1.43-25.22,2.08-28.21,3.38-.78-2.99-2.99-10.27-4.55-14.3,3.51-.52,6.5-1.95,10.92-4.29,3.51-1.69,12.22-6.63,20.8-13.13-12.48,2.47-25.09,4.42-37.05,5.98-.52-3.9-2.6-9.88-4.29-13.13,29.9-4.03,62.66-10.79,82.55-19.24l11.44,12.22c-10.79,4.29-23.66,7.93-37.31,10.92l7.02,4.55c-7.02,5.2-14.43,10.14-22.1,14.56l22.49-1.17c4.81-3.38,9.36-6.76,13.78-10.4l11.44,10.27c-13.78,10.4-28.86,19.37-43.94,26.78l36.66-2.47c-2.73-3.25-5.59-6.37-8.32-9.23l12.87-6.5c9.23,9.23,19.89,21.32,25.35,29.25l-13.13,7.93c-1.69-2.6-3.9-5.72-6.63-9.1l-28.21,2.21Zm19.5,3.12c10.01,6.63,22.88,16.64,29.12,23.79l-13.65,9.1c-5.59-6.89-18.07-17.42-28.08-24.7l12.61-8.19Z"/><path d="m1816.52,211.02c-.91,11.57-2.99,23.92-5.72,31.72-2.47-1.56-8.32-3.38-11.44-4.16,2.99-7.54,4.42-19.11,5.2-29.51l11.96,1.95Zm23.01-7.67c-.26-1.82-.65-3.64-1.17-5.85-26,4.55-30.29,5.98-33.15,7.41-.65-2.86-2.99-9.88-4.81-13.78,3.51-.91,6.24-3.64,10.14-8.58,1.69-1.82,4.55-5.33,7.93-10.27-9.62,1.17-12.48,1.82-14.3,2.73-.78-2.99-3.12-9.75-4.68-13.65,2.47-.65,4.68-3.12,7.28-7.02,2.73-3.64,10.53-18.07,15.21-31.85l13.78,5.98c-4.81,11.05-11.31,22.75-18.07,32.37l8.58-.65c3.51-6.11,7.15-13,10.01-19.5l12.74,7.93c-7.41,14.04-17.16,28.21-27.04,39.91l13-2.08c-1.17-3.38-2.47-6.76-3.77-9.62l10.4-4.03c4.03,8.32,7.93,18.98,9.1,26l-11.18,4.55Zm-9.49,4.55c1.56,8.58,3.12,19.37,3.51,26.78l-11.44,2.86c-.26-7.28-1.56-18.33-2.86-26.78l10.79-2.86Zm13.78-3.77c2.34,6.76,5.07,15.47,6.37,21.06l-10.79,4.03c-1.04-5.85-3.64-14.82-5.98-21.58l10.4-3.51Zm62.66,24.96c2.34,0,2.73-2.47,3.12-17.68,2.99,2.34,9.1,4.81,13,5.72-1.3,20.02-4.81,25.61-14.56,25.61h-9.36c-11.83,0-14.43-4.55-14.43-18.2v-38.74l-7.41.91c-1.04,27.82-4.55,47.32-25.74,58.89-1.69-3.77-6.11-9.49-9.36-12.09,17.16-8.84,19.76-23.14,20.54-44.85-4.94.65-7.02,1.3-8.84,2.08-.78-2.99-3.38-10.66-5.2-14.82,3.12-.91,5.72-4.03,8.97-9.36,1.56-2.08,4.55-7.02,7.8-13.52h-15.47v-14.43h22.1c2.08-5.07,4.16-10.27,5.85-15.6l16.77,4.42c-1.56,3.77-3.12,7.41-4.81,11.18h30.55v14.43h-37.83c-3.9,7.41-8.19,14.3-12.35,20.54l27.43-2.6c-2.08-3.51-4.16-6.89-5.98-10.14l12.48-5.59c6.63,10.01,14.43,23.27,17.55,32.24l-13.52,6.24c-.91-2.99-2.34-6.37-4.03-10.14l-5.07.65v40.3c0,4.03.26,4.55,2.47,4.55h5.33Z"/></g><g><path d="m640.03,344.81l7.65-9.18c4.77,4.41,11.07,7.38,16.92,7.38,6.93,0,10.62-2.97,10.62-7.65,0-4.95-4.05-6.48-9.99-9l-8.91-3.78c-6.75-2.79-13.5-8.19-13.5-17.91,0-10.89,9.54-19.26,23.04-19.26,7.74,0,15.48,3.06,20.88,8.55l-6.75,8.37c-4.23-3.51-8.64-5.49-14.13-5.49-5.85,0-9.63,2.61-9.63,7.02,0,4.77,4.77,6.48,10.44,8.73l8.73,3.69c8.1,3.33,13.41,8.46,13.41,18.09,0,10.89-9.09,20.16-24.48,20.16-8.91,0-17.82-3.51-24.3-9.72Z"/><path d="m699.51,302.87h10.8l.9,5.22h.36c4.23-3.6,9.45-6.48,14.85-6.48,12.42,0,19.8,10.17,19.8,25.65,0,17.28-10.35,27.27-21.42,27.27-4.41,0-8.64-1.98-12.51-5.49l.36,8.28v15.3h-13.14v-69.75Zm33.12,24.57c0-9.63-3.06-14.94-9.99-14.94-3.42,0-6.48,1.71-9.99,5.22v22.14c3.24,2.79,6.48,3.78,9.18,3.78,6.12,0,10.8-5.22,10.8-16.2Z"/><path d="m754.33,328.16c0-16.83,11.61-26.55,24.21-26.55s24.21,9.72,24.21,26.55-11.61,26.37-24.21,26.37-24.21-9.72-24.21-26.37Zm34.92,0c0-9.54-3.87-15.75-10.71-15.75s-10.71,6.21-10.71,15.75,3.87,15.57,10.71,15.57,10.71-6.12,10.71-15.57Z"/><path d="m813.81,302.87h10.8l.9,8.91h.36c3.69-6.57,9.09-10.17,14.31-10.17,2.79,0,4.41.45,5.94,1.08l-2.34,11.43c-1.71-.54-3.15-.81-5.22-.81-3.96,0-8.73,2.61-11.61,9.9v30.06h-13.14v-50.4Z"/><path d="m854.94,335.63v-22.32h-7.11v-9.81l7.74-.63,1.53-13.5h11.07v13.5h12.42v10.44h-12.42v22.32c0,5.76,2.34,8.46,6.84,8.46,1.62,0,3.6-.54,4.95-1.08l2.16,9.63c-2.7.9-6.21,1.89-10.62,1.89-11.97,0-16.56-7.56-16.56-18.9Z"/><path d="m891.93,286.67h40.86v11.07h-27.54v15.39h23.4v11.16h-23.4v17.82h28.53v11.16h-41.85v-66.6Z"/><path d="m939.27,302.87h13.32l7.38,25.11c1.26,4.95,2.7,10.17,4.05,15.3h.45c1.26-5.13,2.7-10.35,4.05-15.3l7.38-25.11h12.69l-16.83,50.4h-15.3l-17.19-50.4Z"/><path d="m993.09,328.16c0-16.38,11.43-26.55,23.49-26.55,13.86,0,21.06,10.17,21.06,24.12,0,2.43-.27,4.86-.63,6.03h-31.05c1.08,8.28,6.48,12.6,13.95,12.6,4.14,0,7.74-1.26,11.34-3.51l4.5,8.1c-4.95,3.42-11.34,5.58-17.64,5.58-14.04,0-25.02-9.81-25.02-26.37Zm33.21-5.13c0-6.84-3.06-11.16-9.54-11.16-5.31,0-9.99,3.78-10.98,11.16h20.52Z"/><path d="m1048.53,302.87h10.8l.9,6.66h.36c4.41-4.32,9.54-7.92,16.38-7.92,10.89,0,15.57,7.56,15.57,20.25v31.41h-13.23v-29.79c0-7.74-2.16-10.53-7.11-10.53-4.14,0-6.75,1.98-10.53,5.67v34.65h-13.14v-50.4Z"/><path d="m1108.11,335.63v-22.32h-7.11v-9.81l7.74-.63,1.53-13.5h11.07v13.5h12.42v10.44h-12.42v22.32c0,5.76,2.34,8.46,6.84,8.46,1.62,0,3.6-.54,4.95-1.08l2.16,9.63c-2.7.9-6.21,1.89-10.62,1.89-11.97,0-16.56-7.56-16.56-18.9Z"/><path d="m1165.53,286.67h21.87c14.76,0,26.1,5.13,26.1,20.88s-11.43,22.05-25.74,22.05h-8.91v23.67h-13.32v-66.6Zm21.33,32.4c9.18,0,13.59-3.87,13.59-11.52s-4.86-10.35-14.04-10.35h-7.56v21.87h8.01Z"/><path d="m1224.48,302.87h10.8l.9,8.91h.36c3.69-6.57,9.09-10.17,14.31-10.17,2.79,0,4.41.45,5.94,1.08l-2.34,11.43c-1.71-.54-3.15-.81-5.22-.81-3.96,0-8.73,2.61-11.61,9.9v30.06h-13.14v-50.4Z"/><path d="m1259.49,328.16c0-16.83,11.61-26.55,24.21-26.55s24.21,9.72,24.21,26.55-11.61,26.37-24.21,26.37-24.21-9.72-24.21-26.37Zm34.92,0c0-9.54-3.87-15.75-10.71-15.75s-10.71,6.21-10.71,15.75,3.87,15.57,10.71,15.57,10.71-6.12,10.71-15.57Z"/><path d="m1366.31,291.71c-1.71-.63-3.69-1.08-5.31-1.08-3.96,0-6.12,2.34-6.12,7.92v4.32h9.45v10.44h-9.45v39.96h-13.23v-39.96h-6.75v-9.81l6.75-.54v-4.14c0-10.53,4.86-18.63,17.55-18.63,3.87,0,7.29.9,9.54,1.8l-2.43,9.72Z"/><path d="m1368.66,328.16c0-16.83,11.61-26.55,24.21-26.55s24.21,9.72,24.21,26.55-11.61,26.37-24.21,26.37-24.21-9.72-24.21-26.37Zm34.92,0c0-9.54-3.87-15.75-10.71-15.75s-10.71,6.21-10.71,15.75,3.87,15.57,10.71,15.57,10.71-6.12,10.71-15.57Z"/><path d="m1428.14,302.87h10.8l.9,8.91h.36c3.69-6.57,9.09-10.17,14.31-10.17,2.79,0,4.41.45,5.94,1.08l-2.34,11.43c-1.71-.54-3.15-.81-5.22-.81-3.96,0-8.73,2.61-11.61,9.9v30.06h-13.14v-50.4Z"/><path d="m1488.89,286.67h13.32v26.19h25.2v-26.19h13.23v66.6h-13.23v-28.8h-25.2v28.8h-13.32v-66.6Z"/><path d="m1552.61,344.81l7.65-9.18c4.77,4.41,11.07,7.38,16.92,7.38,6.93,0,10.62-2.97,10.62-7.65,0-4.95-4.05-6.48-9.99-9l-8.91-3.78c-6.75-2.79-13.5-8.19-13.5-17.91,0-10.89,9.54-19.26,23.04-19.26,7.74,0,15.48,3.06,20.88,8.55l-6.75,8.37c-4.23-3.51-8.64-5.49-14.13-5.49-5.85,0-9.63,2.61-9.63,7.02,0,4.77,4.77,6.48,10.44,8.73l8.73,3.69c8.1,3.33,13.41,8.46,13.41,18.09,0,10.89-9.09,20.16-24.48,20.16-8.91,0-17.82-3.51-24.3-9.72Z"/><path d="m1613.18,286.67h13.59l19.35,35.46,6.66,14.4h.45c-.72-6.93-1.71-15.75-1.71-23.31v-26.55h12.6v66.6h-13.5l-19.26-35.64-6.75-14.31h-.45c.63,7.2,1.62,15.57,1.62,23.22v26.73h-12.6v-66.6Z"/><path d="m1680.23,323.3v-36.63h13.32v37.8c0,13.86,4.77,18.54,12.6,18.54s12.96-4.68,12.96-18.54v-37.8h12.78v36.63c0,22.14-9.45,31.23-25.74,31.23s-25.92-9.09-25.92-31.23Z"/></g></svg>