<?xml version="1.0" encoding="UTF-8"?><svg id="Layer_1" xmlns="http://www.w3.org/2000/svg" viewBox="0 0 498.74 414.4"><path d="m379.7,100.25c1.76-1.32,3.53-2.64,5.29-3.96,1.12-.84,2.19-1.78,3.39-2.49.49-.29,1.67-.33,1.82-.08.31.55.47,1.61.14,2.03-1.42,1.84-3.04,3.53-4.6,5.27-1.11,1.24-2.23,2.46-3.34,3.7l.54.79c1.58-.65,3.15-1.29,4.73-1.94.65-.27,1.29-.67,1.96-.74.58-.06,1.21.24,1.82.39-.25.58-.33,1.41-.77,1.7-1.96,1.27-4.12,2.25-6.04,3.58-3.44,2.37-6.76,4.92-10.14,7.39-.94.69-1.85,1.47-2.87,2-7.15,3.68-12.76,9.28-18.07,15.06-7.73,8.41-16.53,15.15-26.96,19.85-3.33,1.5-6.41,3.55-9.65,5.26-4.91,2.59-8.51,1.75-11.83-2.69-.47-.62-.92-1.27-1.27-1.96-2.88-5.63-6.08-10.94-10.4-15.72-4.62-5.12-6.36-11.89-7.93-18.79-3.43.47-6.83.69-9.31,3.54-.36.41-.7.9-1.16,1.15-3.76,2.07-4.5,5.27-4.25,9.33.2,3.14-.55,6.36-.95,9.53-.81,6.49-4.28,11.31-9.66,14.79-2.68,1.73-5.51,3.22-8.47,4.93.58.47,1.13.96,1.72,1.39,15.73,11.48,29.02,25.36,40.37,41.13.91,1.26,1.68,2.63,2.54,3.94,2.74,4.18,2.47,8.22-.54,12.14-.86,1.11-1.72,2.22-2.61,3.3-3.49,4.24-7.66,6.73-13.47,6.69-6.23-.05-12.49.53-18.7,1.12-10.87,1.03-21.36-1.09-31.68-3.89-14.92-4.04-30.17-4.82-45.46-5.51-.65-.03-1.66.7-1.97,1.34-1.98,4.07-3.56,8.35-5.78,12.27-1.74,3.08-4.01,5.93-6.4,8.56-15.26,16.78-34.59,28.34-53,41.07-6.49,4.49-12.24,9.83-16.55,16.39-1.98,3.01-2.85,6.86-3.7,10.46-.79,3.32-.95,6.8-1.27,10.21-.36,3.85,2.8,8.44,6.51,9.44,1.82.49,3.08,1.4,3.48,3.3.05.23.02.47.08.7.31,1.18,1.26,2.83.81,3.41-.66.85-2.29,1.16-3.54,1.27-3.57.34-7.16.51-10.74.66-3.37.14-5.91-1.32-7.38-4.37-1.72-3.58-3.74-7.09-4.87-10.86-1.63-5.41-4.68-9.86-8.25-14-5.42-6.28-5.04-9.67,1.94-14.34,4.91-3.29,10.08-6.28,14.64-10.02,6.15-5.04,10.66-11.56,14.61-18.45,3.68-6.43,7.49-12.79,11.31-19.14,5.87-9.76,14.36-16.31,24.98-20.24,1.59-.59,3.18-1.33,4.58-2.27,3.53-2.37,4.68-5.93,5.07-10.04.69-7.14,1.37-14.32,2.67-21.37,1.63-8.88,5.53-17.03,9.23-25.21.32-.7.61-1.41,1.01-2.32-.51-.11-.84-.24-1.19-.26-28.97-1.1-57.61,1.8-85.79,8.35-22,5.11-41.37,16.1-59.56,29.21-4.85,3.5-9.49,7.28-14.79,11.36,3.3-4.85,5.18-9.59,5.62-14.78.22-2.63.31-5.32.04-7.94-.17-1.7.24-2.74,1.46-3.83,9.46-8.48,20.25-14.85,31.75-20.08,19.16-8.72,39.37-13.48,60.21-15.85,21.74-2.47,43.51-1.97,65.29-.77.77.04,1.55,0,2.56,0,.5-1.68,1.08-3.43,1.55-5.22,3.46-13.04,10.93-22.83,23.24-28.65,10.41-4.92,18.35-12.86,26.02-21.13.57-.61,1.03-1.31,1.64-2.1-4.41-2.52-9.05-3.46-13.7-3.51-12.33-.13-24.66.04-36.99.2-11.08.15-22.16.76-33.23.56-7.83-.14-15.49-1.94-22.63-5.39-9.13-4.4-10.56-7.27-8.32-17.09.66-2.88,1.69-5.67,2.44-8.16,2.73,2.69,5.14,5.65,8.12,7.87,5.31,3.96,11.67,5.48,18.11,6.54,10.74,1.76,21.5.74,32.26.28,17.35-.74,34.68-.75,51.78,3,1.6.35,3.18.8,4.74,1.28,1.55.47,3.08,1.04,5.09,1.72,3.24-12.7,8.18-24.56,16.53-34.99-1.32-.41-2.42-.71-3.5-1.09-8.95-3.15-14.5-9.69-18.1-18.17-.34-.79-.61-1.6-.91-2.41-1.52-4.03-2.6-4.43-5.86-1.67-5.55,4.69-11.9,7.57-18.89,9.42-6,1.58-12.1,2.94-17.29,6.85-4.2,3.17-6.99,6.79-6.87,12.28.09,4.57-1.07,8.69-4.03,12.4-1.09,1.37-.97,3.66-1.57,5.48-.36,1.08-1.05,2.05-1.59,3.07-.93-.93-2.31-1.71-2.68-2.83-.51-1.57-.27-3.38-.33-5.09-.03-.94.05-1.88-.04-2.81-.26-2.71-1.22-3.29-3.38-1.67-3.61,2.72-7.02,5.71-10.52,8.57-1.15.93-2.24,2.01-3.53,2.66-.74.37-1.85.02-2.8,0,.16-.89.02-2.06.53-2.64,2.18-2.45,4.62-4.65,6.82-7.07,1.46-1.61,2.67-3.45,3.99-5.18-.21-.23-.43-.47-.64-.7-.87.36-1.8.63-2.61,1.1-3.44,2-6.78,4.2-10.3,6.03-1.21.63-3.78,1.01-4.14.45-1.21-1.84,1.02-2.57,2.09-3.45,2.78-2.27,5.72-4.34,8.59-6.5.79-.59,1.53-1.24,2.3-1.86-.07-.21-.14-.41-.21-.62-1.52.3-3.1.44-4.56.93-2.51.84-4.95,1.92-7.43,2.83-.87.32-1.8.61-2.71.64-.61.02-1.61-.32-1.76-.74-.21-.58-.02-1.72.42-2.04,1.62-1.18,3.36-2.23,5.16-3.12,3.32-1.66,6.7-3.17,9.97-5-4.51-2.04-9.5.63-13.83-1.58-.03-.28-.06-.56-.08-.83.96-.37,1.89-.87,2.88-1.08,2.75-.57,5.51-1.15,8.3-1.45,2.42-.26,4.56-.95,6.28-2.69,2.73-2.75,6.16-3.9,9.87-4.37,2.41-.31,4.37-1.32,6.2-2.96,7.46-6.66,15.14-13.07,22.49-19.85,5.42-4.99,11.59-8.04,18.8-9.29,5.46-.95,10.85-2.23,16.3-3.27,3.83-.73,6.85.44,9.56,3.47,2.73,3.04,5.76,6.11,9.26,8.11,8.59,4.91,14.99,11.9,20.6,19.79.96,1.35,1.96,2.11,3.69,2.36,8.18,1.18,14.86,4.96,19.79,11.72.36.49,1.5.92,2.02.72,3.89-1.55,7.93-2.93,11.5-5.07,2.21-1.33,3.78-3.82,5.47-5.92,2.68-3.33,4.85-7.14,7.89-10.07,5.23-5.04,11.69-6.32,18.7-4.25,5.13,1.51,9.57,4.27,13.17,8.2,4.68,5.12,5.02,11.4,4.2,17.85-.23,1.85-.83,3.65-1.24,5.48-.7,3.19-2.55,5.37-5.46,6.88-.93.48-1.76,1.71-2.07,2.76-.83,2.84-1.33,5.77-2,8.67-.52,2.27-1.2,2.56-3.26,1.42-.68-.38-1.28-1.05-1.99-1.19-.81-.16-1.95-.19-2.51.27-1.22,1.01-2.17,2.36-3.23,3.57-.1.12-.18.37-.27.37-2.96-.12-3.48,2.84-5.28,4.18-2.05,1.52-3.81,1.74-5.72.03-1.9-1.71-3.52-3.72-5.63-6-1.26,1.78-2.64,3.59-3.85,5.52-.24.38.01,1.4.39,1.78,7.41,7.48,7.55,16.37,4.97,25.74-.43,1.57-.37,2.68.59,4.05,3.23,4.59,4.44,9.72,3.76,15.33-.22,1.81-.03,3.67-.03,5.45.65.04.85.12.93.05,6.58-5.31,14.34-8.08,22.29-10.53,7.03-2.17,12.33-6.86,16.98-12.37,1.04-1.23,1.47-2.55.75-4.1-1.15-2.46-.79-4.96-.45-7.56.31-2.42-.11-4.93-.05-7.39.03-1.06.46-2.11.72-3.16.91.43,2.28.63,2.64,1.34,1.32,2.65,2.31,5.47,3.47,8.31,3.81-2.38,6.57-6.38,9.09-10.59.56-.94.84-2.11,1.57-2.85.65-.66,1.76-.89,2.66-1.31.21.9.86,1.99.56,2.67-1.24,2.85-2.83,5.54-4.16,8.35-.46.98-.56,2.13-.83,3.2.26.11.53.22.79.33.69-.58,1.44-1.1,2.07-1.74,2.53-2.55,4.97-5.2,7.57-7.67.51-.49,1.58-.39,2.4-.56.02.78.34,1.76,0,2.3-1.66,2.54-3.55,4.93-5.26,7.45-.86,1.27-1.5,2.68-2.25,4.03.27.22.54.43.81.65Zm-154.01,97.86c-8.99-3.29-18.62-6.5-26.77-12.5-2.84,6.27-5.65,12.48-8.52,18.82,5.81.42,11.59,1.1,17.45-1.04,5.9-2.15,12.05-3.59,17.84-5.28Zm39.93-67.32c-.28-.22-.57-.45-.85-.67-1.78.85-3.69,1.52-5.32,2.61-2.83,1.87-5.3,4.36-8.28,5.92-2.68,1.4-4.94,2.85-6.65,5.45-1.25,1.9-3.28,3.27-4.95,4.89-.64.62-1.23,1.29-1.84,1.94.22.3.43.6.65.9,5.64-2.6,11.46-4.86,16.83-7.92,3.08-1.75,5.68-4.57,8.03-7.31,1.3-1.51,1.63-3.86,2.39-5.83Z" style="fill:#fff;"/><g><path d="m328.87,230.07h1.79v41.23h-1.79v-41.23Zm3.59,0h1.79v41.23h-1.79v-41.23Zm3.59,0h1.79v41.23h-1.79v-41.23Zm21.51,0h1.79v41.23h-1.79v-16.16h-16.13v16.16h-1.79v-41.23h1.79v16.11h16.13v-16.11Zm0,19.7v-1.79h-16.13v1.79h16.13Zm0,3.58v-1.79h-16.13v1.79h16.13Zm3.59-23.28h1.79v41.23h-1.79v-41.23Zm3.59,0h1.79v41.23h-1.79v-41.23Zm3.58,0h1.79v41.23h-1.79v-41.23Z" style="fill:#fff; stroke:#fff; stroke-miterlimit:10;"/><path d="m391.49,246.2h-3.01c-1.28,0-2.2-.33-2.76-.98-.56-.66-.85-1.52-.85-2.6,0-2.39,1.78-3.58,5.35-3.58,3.35,0,5.88.5,7.57,1.49l-1.44,1.09c-1.16-.53-3.2-.8-6.12-.8-1.43,0-2.39.16-2.88.47-.49.32-.73.76-.73,1.32s.13,1,.4,1.32c.27.32.75.47,1.47.47h3.09c2.24,0,4.26.38,6.06,1.15,1.8.76,3.28,1.8,4.44,3.12,1.16,1.32,2.05,2.84,2.66,4.56.61,1.72.92,3.56.92,5.52,0,1.59-.22,3.1-.67,4.53-.45,1.43-1.12,2.74-2.03,3.93-.9,1.19-1.99,2.23-3.26,3.1-1.27.87-2.78,1.55-4.53,2.04-1.75.49-3.65.73-5.69.73-3.2,0-6.2-.49-9-1.46-2.8-.97-5.12-2.33-6.98-4.07l1.44-1.07c1.69,1.53,3.81,2.71,6.36,3.55,2.55.84,5.27,1.26,8.18,1.26,2.27,0,4.33-.33,6.16-.98,1.83-.66,3.34-1.56,4.53-2.7,1.19-1.15,2.1-2.47,2.74-3.98.64-1.51.96-3.14.96-4.88,0-2.31-.47-4.39-1.39-6.26-.93-1.87-2.34-3.38-4.25-4.54-1.9-1.16-4.15-1.74-6.74-1.74Zm-3.01,8.96h2.74c1.28,0,2.2.33,2.76,1,.56.66.85,1.53.85,2.59,0,2.39-1.78,3.58-5.35,3.58-3.37,0-5.9-.5-7.59-1.49l1.44-1.1c1.16.53,3.21.8,6.15.8,1.43,0,2.39-.16,2.88-.47.49-.31.73-.75.73-1.32s-.14-.98-.41-1.31c-.27-.32-.78-.49-1.51-.49h-2.69c-2.29,0-4.36-.37-6.21-1.12-1.85-.75-3.37-1.78-4.56-3.09-1.19-1.31-2.1-2.83-2.73-4.56-.63-1.73-.95-3.58-.95-5.58,0-1.59.22-3.1.67-4.53s1.12-2.74,2.03-3.93c.9-1.2,1.99-2.23,3.26-3.1,1.27-.87,2.78-1.55,4.53-2.04,1.75-.49,3.65-.74,5.69-.74,3.2,0,6.2.49,8.99,1.46s5.11,2.33,6.97,4.07l-1.44,1.07c-1.69-1.53-3.81-2.71-6.35-3.55s-5.26-1.26-8.17-1.26c-2.27,0-4.33.33-6.16.98-1.83.66-3.35,1.56-4.53,2.7-1.19,1.14-2.1,2.47-2.74,3.98-.64,1.51-.96,3.14-.96,4.88,0,2.34.47,4.45,1.42,6.32.95,1.88,2.39,3.38,4.33,4.52,1.94,1.14,4.24,1.71,6.9,1.71Zm0-7.17h2.84c3.37,0,6,1.03,7.91,3.09,1.9,2.06,2.85,4.62,2.85,7.67s-1.1,5.67-3.31,7.71c-2.21,2.03-5.3,3.05-9.29,3.05-2.66,0-5.14-.36-7.44-1.1-2.31-.73-4.22-1.76-5.75-3.09l1.39-1.12c1.36,1.11,3.08,1.98,5.14,2.59,2.07.61,4.29.92,6.66.92,3.5,0,6.18-.84,8.03-2.52,1.85-1.68,2.78-3.83,2.78-6.45s-.78-4.73-2.33-6.42c-1.55-1.69-3.77-2.54-6.66-2.54h-2.81c-2.42,0-4.24-.66-5.45-1.99-1.21-1.33-1.82-3.05-1.82-5.18s.75-3.85,2.25-5.18c1.5-1.33,3.76-1.99,6.76-1.99,2.11,0,4.07.25,5.88.74,1.81.49,3.3,1.19,4.48,2.1l-1.42,1.1c-2.08-1.43-5.05-2.14-8.94-2.14-2.51,0-4.34.49-5.49,1.48-1.15.99-1.73,2.29-1.73,3.9s.43,2.93,1.28,3.91c.85.98,2.25,1.47,4.2,1.47Zm0,3.58h2.74c2.42,0,4.24.67,5.45,2.02,1.21,1.34,1.82,3.06,1.82,5.15s-.75,3.85-2.25,5.18-3.76,1.99-6.76,1.99c-2.11,0-4.07-.25-5.89-.73-1.82-.49-3.32-1.19-4.49-2.1l1.42-1.1c2.07,1.43,5.06,2.14,8.96,2.14,2.51,0,4.34-.49,5.49-1.48,1.15-.99,1.73-2.29,1.73-3.9s-.43-2.91-1.29-3.9c-.86-.99-2.27-1.48-4.21-1.48h-2.71c-3.4,0-6.06-1.02-7.98-3.05-1.92-2.03-2.88-4.6-2.88-7.71s1.1-5.67,3.31-7.71c2.21-2.03,5.3-3.05,9.29-3.05,2.66,0,5.13.37,7.43,1.1,2.3.73,4.21,1.76,5.74,3.09l-1.39,1.12c-1.36-1.11-3.07-1.98-5.13-2.59-2.06-.61-4.27-.92-6.65-.92-3.5,0-6.18.84-8.03,2.51-1.85,1.68-2.78,3.83-2.78,6.45s.78,4.75,2.34,6.44c1.56,1.68,3.8,2.53,6.72,2.53Z" style="fill:#fff; stroke:#fff; stroke-miterlimit:10;"/><path d="m411.41,232.98v38.32h-1.79v-41.23h2.14l25.27,41.23h-2.07l-23.55-38.32Zm1.79,5.1l1.79,3.04v30.18h-1.79v-33.21Zm.62-8.02h2.09l25.35,41.23h-2.09l-25.35-41.23Zm2.96,13.97l1.79,3.01v24.25h-1.79v-27.26Zm1.27-13.97h2.12l25.32,41.23h-2.14l-25.3-41.23Zm2.32,19.84l1.79,2.96v18.42h-1.79v-21.39Zm1.89-19.84h2.09l23.5,38.32v-38.32h1.79v41.23h-2.12l-25.27-41.23Zm16.63,21.39l-1.79-2.96v-18.42h1.79v21.39Zm3.59,5.88l-1.79-3.01v-24.25h1.79v27.26Zm3.59,5.95l-1.79-3.04v-30.18h1.79v33.21Z" style="fill:#fff; stroke:#fff; stroke-miterlimit:10;"/><path d="m494.18,253.17v-23.11h1.79v23.11c0,3.58-.94,6.91-2.81,9.97-1.88,3.06-4.42,5.49-7.63,7.27s-6.7,2.68-10.47,2.68-7.26-.89-10.47-2.68-5.76-4.21-7.63-7.27c-1.88-3.06-2.81-6.39-2.81-9.97v-23.11h1.79v23.11c0,2.44.51,4.78,1.52,7.02,1.01,2.24,2.37,4.17,4.08,5.79,1.71,1.62,3.75,2.91,6.11,3.87,2.37.96,4.83,1.44,7.41,1.44s5.04-.48,7.41-1.44c2.37-.96,4.4-2.25,6.11-3.87,1.71-1.62,3.07-3.55,4.08-5.79,1.01-2.24,1.52-4.58,1.52-7.02Zm-3.59,0v-23.11h1.79v23.11c0,2.21-.46,4.32-1.38,6.34-.92,2.02-2.15,3.75-3.7,5.22-1.54,1.46-3.39,2.62-5.53,3.49-2.14.86-4.38,1.29-6.72,1.29s-4.58-.43-6.72-1.29c-2.14-.86-3.98-2.02-5.53-3.49-1.54-1.46-2.78-3.2-3.7-5.22-.92-2.02-1.38-4.13-1.38-6.34v-23.11h1.79v23.11c0,2.62.7,5.05,2.09,7.28,1.39,2.23,3.28,4,5.66,5.3,2.38,1.3,4.98,1.96,7.78,1.96s5.4-.65,7.78-1.96c2.38-1.3,4.27-3.07,5.66-5.3,1.39-2.23,2.09-4.66,2.09-7.28Zm-3.59,0v-23.11h1.79v23.11c0,1.73-.37,3.37-1.1,4.94-.73,1.57-1.71,2.93-2.94,4.07-1.23,1.15-2.69,2.05-4.38,2.73-1.69.67-3.47,1.01-5.33,1.01s-3.64-.34-5.33-1.01c-1.69-.67-3.15-1.58-4.38-2.73-1.23-1.14-2.21-2.5-2.94-4.07-.73-1.57-1.1-3.22-1.1-4.94v-23.11h1.79v23.11c0,1.98.54,3.81,1.61,5.49,1.07,1.68,2.52,3.02,4.36,4s3.83,1.47,5.99,1.47,4.15-.49,5.99-1.47c1.83-.98,3.29-2.31,4.36-4,1.07-1.68,1.61-3.51,1.61-5.49Zm-3.58,0v-23.11h1.79v23.11c0,2.52-1,4.68-2.99,6.47-1.99,1.79-4.38,2.69-7.17,2.69s-5.18-.9-7.17-2.69c-1.99-1.79-2.99-3.95-2.99-6.47v-23.11h1.79v23.11c0,2.03.82,3.76,2.45,5.2,1.63,1.44,3.61,2.17,5.91,2.17s4.28-.72,5.91-2.17c1.63-1.44,2.45-3.18,2.45-5.2Z" style="fill:#fff; stroke:#fff; stroke-miterlimit:10;"/><path d="m197.51,332.49h-1.94l16.31-41.23h1.94l16.28,41.23h-1.92l-15.34-38.82-15.34,38.82Zm15.56-34.56l1.02,2.29-12.75,32.27h-1.92l13.64-34.56Zm1.99,4.73l.95,2.47-10.78,27.36h-1.94l11.78-29.83Zm1.89,4.93l.95,2.51-8.84,22.38h-1.92l9.81-24.9Zm-4.88,19.97l.7-1.79h11.75l.75,1.79h-13.2Zm1.39-3.59l.7-1.79h8.94l.77,1.79h-10.41Zm1.39-3.58l.72-1.79h6.12l.72,1.79h-7.57Zm2.79-29.13l16.31,41.23h-1.94l-16.28-41.23h1.92Zm3.86,0l16.31,41.23h-1.92l-16.31-41.23h1.92Zm20.17,41.23h-1.94l-16.28-41.23h1.92l16.31,41.23Z" style="fill:#fff; stroke:#fff; stroke-miterlimit:10;"/><path d="m244,298.43v-1.79h26.89v1.79h-26.89Zm0,3.59v-1.79h26.89v1.79h-26.89Zm0,3.58v-1.79h26.89v1.79h-26.89Zm7.17.97h1.79v25.92h-1.79v-25.92Zm3.59,0h1.79v25.92h-1.79v-25.92Zm3.59,0h1.79v25.92h-1.79v-25.92Zm3.59,0h1.79v25.92h-1.79v-25.92Z" style="fill:#fff; stroke:#fff; stroke-miterlimit:10;"/><path d="m274.82,296.64h1.79v35.85h-1.79v-35.85Zm3.59,0h1.79v35.85h-1.79v-35.85Zm3.59,0h1.79v35.85h-1.79v-35.85Zm17.95,0h1.79v35.85h-1.79v-14.34h-12.57v14.34h-1.79v-35.85h1.79v12.55h12.57v-12.55Zm0,16.13v-1.79h-12.57v1.79h12.57Zm0,3.58v-1.79h-12.57v1.79h12.57Zm3.59-19.72h1.79v35.85h-1.79v-35.85Zm3.59,0h1.79v35.85h-1.79v-35.85Zm3.58,0h1.79v35.85h-1.79v-35.85Z" style="fill:#fff; stroke:#fff; stroke-miterlimit:10;"/><path d="m317.17,296.64h1.79v35.85h-1.79v-35.85Zm3.59,0h1.79v35.85h-1.79v-35.85Zm3.59,0h1.79v35.85h-1.79v-35.85Zm3.59,0h1.79v26.89h13.22v1.79h-13.22v1.79h13.22v1.79h-13.22v1.79h13.22v1.79h-15.01v-35.85Z" style="fill:#fff; stroke:#fff; stroke-miterlimit:10;"/><path d="m348.69,332.49h-1.79v-35.85h1.79v35.85Zm3.59,0h-1.79v-35.85h1.79v35.85Zm3.59,0h-1.79v-35.85h1.79v35.85Zm3.59-8.96h17.15v1.79h-17.15v1.79h17.15v1.79h-17.15v1.79h17.15v1.79h-18.95v-35.85h18.95v1.79h-17.15v1.79h17.15v1.79h-17.15v1.79h17.15v1.79h-17.15v4.46h16.16v1.79h-16.16v1.79h16.16v1.79h-16.16v1.79h16.16v1.79h-16.16v4.51Z" style="fill:#fff; stroke:#fff; stroke-miterlimit:10;"/><path d="m380.09,298.43v-1.79h26.89v1.79h-26.89Zm0,3.59v-1.79h26.89v1.79h-26.89Zm0,3.58v-1.79h26.89v1.79h-26.89Zm7.17.97h1.79v25.92h-1.79v-25.92Zm3.59,0h1.79v25.92h-1.79v-25.92Zm3.59,0h1.79v25.92h-1.79v-25.92Zm3.59,0h1.79v25.92h-1.79v-25.92Z" style="fill:#fff; stroke:#fff; stroke-miterlimit:10;"/><path d="m410.92,296.64h1.79v35.85h-1.79v-35.85Zm3.59,0h1.79v35.85h-1.79v-35.85Zm3.59,0h1.79v35.85h-1.79v-35.85Zm3.59,0h1.79v35.85h-1.79v-35.85Z" style="fill:#fff; stroke:#fff; stroke-miterlimit:10;"/><path d="m462.33,302.26l-1.44,1.07c-1.68-2.08-3.73-3.71-6.16-4.91-2.43-1.2-5.03-1.79-7.81-1.79-2.42,0-4.74.47-6.96,1.42-2.22.95-4.12,2.22-5.73,3.82-1.6,1.6-2.88,3.51-3.82,5.73-.95,2.22-1.42,4.54-1.42,6.96s.47,4.74,1.42,6.96c.95,2.22,2.22,4.12,3.82,5.73,1.6,1.6,3.51,2.88,5.73,3.82,2.22.95,4.54,1.42,6.96,1.42,2.77,0,5.37-.6,7.81-1.79,2.43-1.2,4.49-2.83,6.16-4.9l1.42,1.09c-1.84,2.29-4.1,4.1-6.78,5.42-2.68,1.32-5.55,1.98-8.6,1.98-2.67,0-5.23-.52-7.66-1.57-2.43-1.04-4.53-2.45-6.29-4.21-1.76-1.76-3.16-3.86-4.21-6.29s-1.57-4.98-1.57-7.66.52-5.22,1.57-7.66,2.45-4.53,4.21-6.29c1.76-1.76,3.85-3.16,6.29-4.21s4.98-1.57,7.66-1.57c3.05,0,5.93.66,8.61,1.98,2.69,1.32,4.96,3.13,6.8,5.44Zm-2.79,2.24l-1.39,1.12c-1.34-1.68-3-3-4.95-3.96-1.96-.96-4.05-1.44-6.27-1.44-1.94,0-3.8.38-5.56,1.13-1.77.76-3.3,1.78-4.58,3.06-1.29,1.29-2.31,2.81-3.06,4.58-.76,1.77-1.13,3.62-1.13,5.57s.38,3.8,1.13,5.56,1.78,3.29,3.06,4.58c1.29,1.29,2.81,2.31,4.58,3.06,1.77.76,3.62,1.13,5.56,1.13,2.22,0,4.32-.48,6.27-1.44,1.96-.96,3.61-2.28,4.95-3.96l1.34,1.17c-1.51,1.88-3.36,3.35-5.55,4.42-2.19,1.07-4.53,1.61-7.02,1.61-2.19,0-4.28-.43-6.27-1.28-1.99-.85-3.71-2-5.14-3.44-1.44-1.44-2.58-3.15-3.44-5.14-.86-1.99-1.28-4.08-1.28-6.27s.43-4.28,1.28-6.27c.85-1.99,2-3.71,3.44-5.14,1.44-1.44,3.15-2.58,5.14-3.44,1.99-.85,4.08-1.28,6.27-1.28,2.51,0,4.86.54,7.06,1.62,2.2,1.08,4.05,2.56,5.56,4.46Zm-2.81,2.24l-1.42,1.1c-1-1.26-2.23-2.25-3.7-2.96-1.47-.71-3.03-1.07-4.69-1.07-2.97,0-5.51,1.05-7.61,3.16-2.1,2.11-3.15,4.64-3.15,7.59s1.05,5.49,3.15,7.59c2.1,2.11,4.64,3.16,7.61,3.16,1.66,0,3.23-.36,4.71-1.08s2.71-1.71,3.71-2.98l1.37,1.15c-1.16,1.46-2.6,2.61-4.31,3.45-1.71.84-3.54,1.26-5.48,1.26-2.27,0-4.37-.56-6.3-1.68-1.93-1.12-3.45-2.64-4.57-4.57-1.12-1.92-1.68-4.02-1.68-6.3s.56-4.37,1.68-6.3c1.12-1.92,2.64-3.45,4.57-4.57,1.93-1.12,4.02-1.68,6.3-1.68,1.94,0,3.77.42,5.49,1.26,1.72.84,3.16,2,4.32,3.47Zm-2.79,2.24l-1.44,1.09c-1.44-1.79-3.3-2.69-5.58-2.69-1.98,0-3.66.7-5.07,2.1-1.4,1.4-2.1,3.09-2.1,5.07s.7,3.66,2.1,5.07c1.4,1.4,3.09,2.1,5.07,2.1,1.11,0,2.15-.24,3.12-.72.97-.48,1.8-1.15,2.48-1.99l1.39,1.17c-.83,1.05-1.86,1.86-3.09,2.45-1.23.59-2.53.88-3.91.88-2.47,0-4.59-.88-6.34-2.63-1.75-1.75-2.63-3.86-2.63-6.34s.88-4.59,2.63-6.34c1.75-1.75,3.86-2.63,6.34-2.63,1.39,0,2.71.3,3.93.91,1.23.61,2.26,1.43,3.09,2.48Z" style="fill:#fff; stroke:#fff; stroke-miterlimit:10;"/><path d="m482.2,311.85h-2.84c-4.85,0-7.27-1.47-7.27-4.41,0-1.33.75-2.42,2.25-3.27,1.5-.85,3.76-1.28,6.76-1.28,2.11,0,4.07.25,5.88.73,1.81.49,3.3,1.19,4.48,2.1l-1.42,1.09c-2.08-1.43-5.05-2.14-8.94-2.14-2.49,0-4.32.26-5.48.77-1.16.51-1.74,1.18-1.74,1.99,0,.95.41,1.62,1.22,2.02s2.23.6,4.26.6h2.84c4.61,0,8.18,1.05,10.68,3.15,2.51,2.1,3.76,4.91,3.76,8.43,0,1.61-.36,3.12-1.07,4.53s-1.74,2.65-3.07,3.72c-1.34,1.07-3.04,1.92-5.12,2.54-2.08.62-4.38.93-6.92.93-3.2,0-6.2-.49-8.99-1.46-2.79-.97-5.11-2.33-6.97-4.07l1.44-1.07c1.69,1.53,3.81,2.71,6.35,3.55,2.54.84,5.26,1.26,8.17,1.26,4.48,0,8-.95,10.56-2.84,2.56-1.89,3.83-4.26,3.83-7.1,0-3-1.1-5.39-3.29-7.15-2.19-1.76-5.31-2.64-9.36-2.64Zm0,7.17h-2.84c-4.61,0-8.18-1.05-10.68-3.15-2.51-2.1-3.76-4.91-3.76-8.43,0-1.61.36-3.12,1.07-4.53.71-1.41,1.74-2.65,3.08-3.72,1.34-1.07,3.04-1.92,5.12-2.54,2.07-.62,4.38-.93,6.92-.93,3.2,0,6.2.49,8.99,1.46,2.79.97,5.11,2.33,6.97,4.07l-1.44,1.07c-1.69-1.53-3.81-2.71-6.35-3.55-2.54-.84-5.26-1.26-8.17-1.26-4.48,0-8,.95-10.56,2.84-2.56,1.89-3.83,4.26-3.83,7.1,0,3,1.1,5.39,3.29,7.15,2.19,1.76,5.31,2.64,9.36,2.64h2.74c4.91,0,7.37,1.47,7.37,4.41,0,1.33-.75,2.42-2.25,3.27-1.5.86-3.76,1.28-6.76,1.28-2.11,0-4.07-.24-5.88-.73-1.81-.49-3.3-1.19-4.48-2.1l1.42-1.1c2.07,1.43,5.05,2.14,8.94,2.14,2.49,0,4.32-.26,5.48-.77,1.16-.51,1.74-1.18,1.74-1.99,0-.95-.41-1.62-1.22-2.02-.81-.4-2.23-.6-4.26-.6Zm0-3.59h-2.84c-3.49,0-6.17-.71-8.04-2.13-1.88-1.42-2.81-3.37-2.81-5.86,0-2.32,1.1-4.26,3.31-5.81,2.21-1.55,5.3-2.33,9.29-2.33,2.66,0,5.13.37,7.43,1.09,2.3.73,4.21,1.76,5.74,3.09l-1.39,1.12c-1.36-1.11-3.07-1.97-5.13-2.59-2.06-.61-4.27-.92-6.65-.92-3.5,0-6.18.6-8.03,1.79-1.85,1.2-2.78,2.71-2.78,4.56,0,1.99.76,3.52,2.28,4.59,1.52,1.07,3.78,1.61,6.78,1.61h2.74c3.54,0,6.25.71,8.13,2.13,1.88,1.42,2.83,3.37,2.83,5.86,0,2.32-1.1,4.26-3.31,5.81-2.21,1.55-5.3,2.33-9.29,2.33-2.66,0-5.13-.37-7.43-1.1-2.3-.73-4.21-1.76-5.74-3.09l1.39-1.12c1.36,1.11,3.07,1.98,5.13,2.59,2.06.61,4.27.92,6.65.92,3.5,0,6.18-.6,8.03-1.79,1.85-1.19,2.78-2.71,2.78-4.56,0-1.99-.76-3.52-2.28-4.59-1.52-1.07-3.78-1.61-6.79-1.61Z" style="fill:#fff; stroke:#fff; stroke-miterlimit:10;"/></g></svg>