<svg xmlns="http://www.w3.org/2000/svg" viewBox="0 0 595.28 804.96"><defs><style>.cls-1{fill:#be1e2d;}.cls-14,.cls-2{font-size:14px;}.cls-2,.cls-6{fill:#414042;}.cls-14,.cls-17,.cls-2,.cls-26,.cls-32,.cls-53,.cls-54,.cls-61{font-family:NotoSansCJKtc-Bold-B5pc-H, Noto Sans CJK TC;}.cls-3{letter-spacing:0.01em;}.cls-4{letter-spacing:-0.03em;}.cls-5{letter-spacing:-0.01em;}.cls-7{fill:#d2d3d4;}.cls-8{fill:#bdbec0;}.cls-9{fill:#e6e7e7;}.cls-10{fill:#6e6f72;}.cls-11{fill:#e6e7e8;}.cls-12,.cls-14,.cls-17,.cls-30,.cls-31,.cls-32,.cls-40,.cls-47,.cls-48,.cls-53,.cls-54{fill:#fff;}.cls-12,.cls-13{stroke:#fff;stroke-miterlimit:10;stroke-width:2px;}.cls-13{fill:none;}.cls-15,.cls-17,.cls-26,.cls-61{font-size:12px;}.cls-16{letter-spacing:-0.01em;}.cls-18{font-size:8px;}.cls-19{letter-spacing:-0.03em;}.cls-20{letter-spacing:-0.01em;}.cls-21{letter-spacing:-0.01em;}.cls-22{letter-spacing:-0.01em;}.cls-23{letter-spacing:0em;}.cls-24{letter-spacing:-0.13em;}.cls-25{letter-spacing:-0.12em;}.cls-26{fill:#58595b;}.cls-27{letter-spacing:-0.18em;}.cls-28{letter-spacing:-0.03em;}.cls-29{letter-spacing:-0.03em;}.cls-31{font-size:30.83px;}.cls-31,.cls-40,.cls-47,.cls-48{font-family:NotoSansCJKtc-Black-B5pc-H, Noto Sans CJK TC;}.cls-32{font-size:6.17px;letter-spacing:-0.01em;}.cls-33{letter-spacing:-0.03em;}.cls-34{letter-spacing:-0.03em;}.cls-35{letter-spacing:-0.03em;}.cls-36{letter-spacing:-0.02em;}.cls-37{letter-spacing:-0.03em;}.cls-38{letter-spacing:-0.02em;}.cls-39{letter-spacing:-0.01em;}.cls-40{font-size:9.25px;letter-spacing:-0.01em;}.cls-41{letter-spacing:-0.04em;}.cls-42{letter-spacing:0em;}.cls-43{letter-spacing:-0.04em;}.cls-44{letter-spacing:0.02em;}.cls-45{letter-spacing:0.04em;}.cls-46{letter-spacing:0.09em;}.cls-47{font-size:10.79px;letter-spacing:0.05em;}.cls-48{font-size:25.69px;letter-spacing:0.01em;}.cls-49{letter-spacing:-0.01em;}.cls-50{letter-spacing:0em;}.cls-51{letter-spacing:-0.03em;}.cls-52{letter-spacing:0em;}.cls-53{font-size:36px;}.cls-54{font-size:20px;}.cls-55{letter-spacing:-0.02em;}.cls-56{letter-spacing:-0.05em;}.cls-57{letter-spacing:-0.11em;}.cls-58{letter-spacing:-0.1em;}.cls-59{letter-spacing:-0.05em;}.cls-60{fill:#f1f2f2;}.cls-61{fill:#a7a9ac;}.cls-62{font-size:9px;}.cls-63{letter-spacing:-0.08em;}</style></defs><g id="Layer_1" data-name="Layer 1"><path class="cls-1" d="M48,775.18a10,10,0,1,0,10,10A10,10,0,0,0,48,775.18Zm5,11H43v-2H53Z"/><text class="cls-2" transform="translate(63.65 790.32)">競賽期間禁止通行 No ent<tspan class="cls-3" x="160.59" y="0">r</tspan><tspan x="166.89" y="0">y during the </tspan><tspan class="cls-4" x="253.06" y="0">c</tspan><tspan x="260.02" y="0">omp</tspan><tspan class="cls-5" x="291.29" y="0">e</tspan><tspan x="299.26" y="0">tition</tspan></text><rect class="cls-6" width="595.28" height="90.64"/></g><g id="Layer_2" data-name="Layer 2"><path class="cls-7" d="M539.27,204.65H503.9a152.72,152.72,0,0,0-238.74,0H229.8v464h31.9a152.74,152.74,0,0,0,245.67,0h31.9Z"/><path class="cls-8" d="M384.53,193.8a108.81,108.81,0,0,0-108.8,108.81V577.89a108.81,108.81,0,0,0,217.61,0V302.61A108.82,108.82,0,0,0,384.53,193.8Z"/><rect class="cls-9" x="193.26" y="235.06" width="36.42" height="407.7"/><rect class="cls-8" x="209.05" y="313.88" width="14.11" height="27.87"/><rect class="cls-8" x="208.88" y="537.55" width="14.11" height="27.87"/><rect class="cls-7" x="211.47" y="341.75" width="9.27" height="195.8"/><polygon class="cls-10" points="133.09 230.88 133.09 378.42 109.12 378.42 109.12 499.39 133.09 499.39 133.09 646.94 193.38 646.94 193.38 230.88 133.09 230.88"/><path class="cls-11" d="M316.22,419.05,372.35,623v63.19h24.37V623l56.13-203.93C422.57,394.32,351.51,390.23,316.22,419.05Z"/><path class="cls-11" d="M322.43,257l-18,47c8.27,8.27,27.41,8.62,36,0Z"/><line class="cls-12" x1="229.69" y1="236.66" x2="275.73" y2="236.66"/><line class="cls-12" x1="229.69" y1="572.27" x2="275.73" y2="572.27"/><path class="cls-13" d="M493.34,565.43c23,0,45.93-13.94,45.93-13.94"/><text class="cls-14" transform="translate(127.86 428.12)">檢錄處<tspan class="cls-15"><tspan x="0" y="14.4">Call </tspan><tspan class="cls-16" x="25.26" y="14.4">r</tspan><tspan x="30.35" y="14.4">oom</tspan><tspan x="0" y="28.8">招集所</tspan></tspan></text><text class="cls-17" transform="translate(338.89 259.69)">鉛球<tspan class="cls-18"><tspan x="0" y="9.6">Sh</tspan><tspan class="cls-19" x="10.11" y="9.6">o</tspan><tspan x="14.9" y="9.6">t put </tspan><tspan x="0" y="19.2">砲丸投</tspan></tspan></text><text class="cls-17" transform="translate(403.29 646.8)">標槍<tspan class="cls-18"><tspan x="0" y="9.6">Ja</tspan><tspan class="cls-20" x="9.27" y="9.6">v</tspan><tspan x="13.82" y="9.6">elin th</tspan><tspan class="cls-21" x="38.84" y="9.6">r</tspan><tspan class="cls-22" x="42.23" y="9.6">o</tspan><tspan class="cls-23" x="47.17" y="9.6">w </tspan><tspan class="cls-24" x="-0.2" y="19.2">や</tspan><tspan class="cls-25" x="6.78" y="19.2">り</tspan><tspan x="13.84" y="19.2">投</tspan></tspan></text><text class="cls-26" transform="translate(201.15 277.35)">跳遠<tspan class="cls-18"><tspan class="cls-27" x="-1.14" y="9.6">Ｌ</tspan><tspan x="5.39" y="9.6">ong</tspan><tspan x="0" y="19.2">jump </tspan><tspan x="0" y="28.8">走幅跳</tspan></tspan></text><text class="cls-26" transform="translate(236.15 231.06)">100M</text><text class="cls-26" transform="translate(236.15 567.35)">400M</text><text class="cls-26" transform="translate(496.45 552.13)">1500M</text><path class="cls-1" d="M558.33,428.91a10,10,0,1,0,10,10A10,10,0,0,0,558.33,428.91Zm5,11h-10v-2h10Z"/><path class="cls-1" d="M384.53,121.34a10,10,0,1,0,10,10A10,10,0,0,0,384.53,121.34Zm5,11h-10v-2h10Z"/><path class="cls-1" d="M249.52,181.28a10,10,0,1,0,10,10A10,10,0,0,0,249.52,181.28Zm5,11h-10v-2h10Z"/><path class="cls-1" d="M246.4,673.25a10,10,0,1,0,10,10A10,10,0,0,0,246.4,673.25Zm5,11h-10v-2h10Z"/><path class="cls-1" d="M519.28,181.28a10,10,0,1,0,10,10A10,10,0,0,0,519.28,181.28Zm5,11h-10v-2h10Z"/><text class="cls-2" transform="translate(26.95 428.86)">會場入口<tspan class="cls-15"><tspan x="0" y="14.4">Ent</tspan><tspan class="cls-28" x="20.11" y="14.4">r</tspan><tspan x="24.97" y="14.4">an</tspan><tspan class="cls-29" x="39.76" y="14.4">c</tspan><tspan x="45.72" y="14.4">e</tspan><tspan x="0" y="28.8">会場入口</tspan></tspan></text><polygon class="cls-6" points="101.34 439.65 91 430.03 91 449.27 101.34 439.65"/><path class="cls-30" d="M72.76,53.28l1.09.34a1.08,1.08,0,0,0,.09-.46V48.64A39.79,39.79,0,0,1,70.08,46v6.17A16.21,16.21,0,0,0,72.76,53.28Z"/><path class="cls-30" d="M28.68,45.87l3.43,6V46.23c-1.57-.61-3.16-1.16-4.75-1.7s-3.17-.85-4.73-1.37a3.11,3.11,0,0,1-1.5-1c-.87-1.28-1.21-1.4-2.7-.91a10.18,10.18,0,0,1-2.58.44,2.89,2.89,0,0,0-2.46,1.14A13.44,13.44,0,0,0,12,45.32c-.2.52-.46,1.24.18,1.66s1.19,0,1.69-.41l.37-.3a2,2,0,0,1,1.88-.4c1.45.34,2.93.53,4.41.74a2.67,2.67,0,0,0,.94-.19,11.61,11.61,0,0,1,4.45,2V45.87Z"/><path class="cls-30" d="M90.37,50.18a1.14,1.14,0,0,0-.92-1.12c-.59-.18-.86.16-1.17.54a4.09,4.09,0,0,1-1,1.15c-1.21.65-2.44,1.36-3.93.92a4,4,0,0,0-.9-.08c-.37.74-.39.79-1.06.49-1.61-.72-3.25-1.39-4.86-2.13v3.21a4.18,4.18,0,0,1-.17,1.3l3,1.07a3.69,3.69,0,0,1,1.51.78,10,10,0,0,0,3.21,2,.88.88,0,0,0,1.35-.41,17.16,17.16,0,0,1,3.7-4.73A3.65,3.65,0,0,0,90.37,50.18Z"/><path class="cls-30" d="M69.9,45.87l-1.54-1.14c-.89-.63-1.72-1.35-2.63-2a2.73,2.73,0,0,0-1.18-.32c-1.29-.16-2.59-.26-3.88-.44-2.39-.34-4.77-.71-7.37-1.1,2.11-1.72,4.18-3.44,6.29-5.11a2,2,0,0,1,2.59.24c1.28,1.19,2.6,2.35,3.9,3.52a2.11,2.11,0,0,0,2.61.33,8.15,8.15,0,0,0,2.12-1.55c1.47-1.63,2.74-3.43,4.25-5a4,4,0,0,0,1.19-3.25,1.42,1.42,0,0,0-1.94-1.33c-.27.1-.54.21-.81.28a1,1,0,0,0-.89,1A16.66,16.66,0,0,0,73,32.3l-5,3.28a7.79,7.79,0,0,0-1.15-1.19,2,2,0,0,1-1-1.84,4.9,4.9,0,0,0-1.55-3.64c-.31-.3-.62-.61-.92-.92a1.41,1.41,0,0,1,2-.46,8.63,8.63,0,0,1,1,.55c.51.33.83.26,1.33-.16.73-.62,1.11-1.73,2.33-1.78a5.54,5.54,0,0,0,0-.72,1.84,1.84,0,0,1,.48-1.78,2.53,2.53,0,0,0,.66-2.18c0-.16,0-.44.06-.49.66-.35,1.24-.95.54-1.38-1.45-.89-2.29-2.18-4-3-1.93-.88-3.42-.58-4.5.74A23.71,23.71,0,0,0,61.7,19.5a3.87,3.87,0,0,0-.57,1.28c-.21,1.09-.57,1.47-1.52,1.59-.89-.9-1.7-1.7-2.48-2.53a2.37,2.37,0,0,1-.57-.91,6.06,6.06,0,0,0-2.88-3.37c-.34-.23-.67-.48-1-.74a12.44,12.44,0,0,0-1.77-1.41c-1.72-.9-3.5-1.7-5.26-2.54l-.78-.06c-.24.66-.51,1.32-.7,2a13.09,13.09,0,0,0-.7,4.86c.17,1.82.87,3.58.11,5.52a14.63,14.63,0,0,0-.43,4.18.81.81,0,0,0,.18.62,2.34,2.34,0,0,0,2.41.05A.63.63,0,0,1,46.1,28c.52,0,1.58-.83,1.62-1.32A2.74,2.74,0,0,0,47,24a1.53,1.53,0,0,1-.58-1,14.79,14.79,0,0,1,1.38-5.94c1.3,1.11,2.56,2.17,3.81,3.25.3.26.53.51.32,1-.3.74-.48,1.53-.73,2.3a24.23,24.23,0,0,1-1,2.85,16.05,16.05,0,0,1-6.76,7.7,8.08,8.08,0,0,0-3.91,5.07c-.37,1.18-.59,2.42-1,3.57-.81,2.11-2.26,4-2.41,6.41a6.8,6.8,0,0,0-1.34-1.75v7a23.74,23.74,0,0,0,2.16,1.43c1.24.69,1.75.75,2.5,0-.83,0-1.67-.1-2.53-.17V53.8c1.73.1,3.09.16,4.08.19.51-.65,1-1.31,1.52-2H39.54a2.46,2.46,0,0,1-2.86-2.86v-.43a2.46,2.46,0,0,1,2.86-2.86h5v2H40.11a.76.76,0,0,0-.86.86V49a.76.76,0,0,0,.86.86h2.57a4,4,0,0,1,1.21.17l.62-.84a.87.87,0,0,1,1.15-.4,16.9,16.9,0,0,0,1.92.49l-1.76-3.42h2.72l1.73,3.58.64-.08q.35-.06.69-.09l1.65-3.41H56l-1.72,3.34h.56c.65,0,1.29.19,1.93.18h.06v-.66a2.45,2.45,0,0,1,2.85-2.86h5v2H60.22a.76.76,0,0,0-.85.86V49a1.55,1.55,0,0,0,0,.22,10.91,10.91,0,0,0,3.32-.93,1.92,1.92,0,0,1,2.29.39c.78.69,1.67,1.26,2.51,1.88h0V45.87Z"/><path class="cls-30" d="M28.53,50.39l.55.45-.55-1Z"/><path class="cls-30" d="M33,53.26a13.43,13.43,0,0,1-3.9-2.42l2.88,5h2.72v-1.4l-1.06-.76A3,3,0,0,0,33,53.26Z"/><path class="cls-30" d="M34.68,47.48V45.87H32.11v.36l1.4.56A4.46,4.46,0,0,1,34.68,47.48Z"/><path class="cls-30" d="M26,48.44v7.43h2.57V50.39l-.73-.59C27.19,49.33,26.58,48.87,26,48.44Z"/><path class="cls-30" d="M42.82,52V53.3a.67.67,0,0,1-.71.72l-1.22,0c-.34.44-.68.88-1,1.32-.19.24-.36.43-.51.59l.48,0,1.32.06,1.54,0a2.82,2.82,0,0,0,2.06-.66,2.86,2.86,0,0,0,.65-2.06v-.71a2.84,2.84,0,0,0-.65-2.06,2,2,0,0,0-.85-.49l-1.48,2Z"/><path class="cls-30" d="M51.6,49.28l-.71,1.45-.62-1.28a10.48,10.48,0,0,1-2.69-.16l2,3.94v2.64h2.57V53.23l2.07-4A25.9,25.9,0,0,0,51.6,49.28Z"/><path class="cls-30" d="M57.47,51.34a3,3,0,0,0,2.18.68h3.29V53.3a.74.74,0,0,1-.19.52.72.72,0,0,1-.53.2c-.92,0-2.69-.08-5.3-.22v1.93c1,.09,2,.15,3,.2l1.31.06,1.55,0a2.77,2.77,0,0,0,2-.66,2.82,2.82,0,0,0,.66-2.06v-.71a2.36,2.36,0,0,0-2.71-2.72H60.22a.73.73,0,0,1-.84-.64,22.06,22.06,0,0,1-2.58.16A2.85,2.85,0,0,0,57.47,51.34Z"/><path class="cls-30" d="M70.08,45.87H69.9l.18.14Z"/><path class="cls-30" d="M73.08,54H70.94a.76.76,0,0,1-.86-.86v-1a20.32,20.32,0,0,1-2.57-1.6v2.58A2.46,2.46,0,0,0,70.37,56h3.29a3,3,0,0,0,2.17-.68,2.07,2.07,0,0,0,.51-.88l-2.49-.84A.78.78,0,0,1,73.08,54Z"/><path class="cls-30" d="M76.51,50V45.87H73.94v2.77l.13.07C74.86,49.16,75.68,49.56,76.51,50Z"/><path class="cls-30" d="M22.16,57.65l-3.78,10h2.78l.64-1.79h3.58L26,67.65h2.79L25,57.65ZM22.45,64l1.14-3.36L24.73,64Z"/><path class="cls-30" d="M32.45,65.65a.47.47,0,0,1-.14-.36V62h1.78V60.08H32.31V58.36H30.09l-.28,1.72H29V62h.86v3.64A2,2,0,0,0,32,67.79a25.11,25.11,0,0,0,2.71-.14V65.79H32.81A.45.45,0,0,1,32.45,65.65Z"/><path class="cls-30" d="M41.24,59.93h-.65a12.41,12.41,0,0,0-2.43.29V57.65h-2.5v10h2.5V62l.73-.09a7.52,7.52,0,0,1,1-.06h.5a.49.49,0,0,1,.36.15.48.48,0,0,1,.14.35v5.29h2.5V62.08a2,2,0,0,0-2.14-2.15Z"/><path class="cls-30" d="M47.31,65.65a.47.47,0,0,1-.14-.36V57.65H44.66v8a2.11,2.11,0,0,0,.59,1.56,2,2,0,0,0,1.45.58,11.69,11.69,0,0,0,1.82-.14V65.79h-.85A.45.45,0,0,1,47.31,65.65Z"/><path class="cls-30" d="M54.52,59.93H51.67a2.11,2.11,0,0,0-2.29,2.29v3.43A2.07,2.07,0,0,0,50,67.21a2.1,2.1,0,0,0,1.55.58,48.72,48.72,0,0,0,5-.28V65.72c-1.82.14-3.2.22-4.14.22a.49.49,0,0,1-.36-.15.48.48,0,0,1-.14-.35v-.58h4.93V62.22a2.11,2.11,0,0,0-2.29-2.29Zm-.21,3.15H51.88v-.79a.5.5,0,0,1,.57-.57h1.29a.5.5,0,0,1,.57.57Z"/><path class="cls-30" d="M61.17,65.65a.48.48,0,0,1-.15-.36V62h1.79V60.08H61V58.36H58.81l-.29,1.72h-.85V62h.85v3.64a2,2,0,0,0,2.15,2.14,25.11,25.11,0,0,0,2.71-.14V65.79H61.52A.45.45,0,0,1,61.17,65.65Z"/><rect class="cls-30" x="64.74" y="57.51" width="2.5" height="2"/><polygon class="cls-30" points="63.67 62.29 64.74 62.29 64.74 67.65 67.24 67.65 67.24 60.36 63.67 60.36 63.67 62.29"/><path class="cls-30" d="M69.13,60.68a2.3,2.3,0,0,0-.6,1.68v3.29a2,2,0,0,0,2.14,2.14,44.87,44.87,0,0,0,4.71-.28V65.65c-1.71.14-3,.21-3.85.21a.48.48,0,0,1-.5-.5V62.58A.5.5,0,0,1,71.6,62h3.78V60.08H70.81A2.3,2.3,0,0,0,69.13,60.68Z"/><path class="cls-30" d="M81.67,62.94H79.1a.49.49,0,0,1-.36-.15.48.48,0,0,1-.14-.35.49.49,0,0,1,.14-.36.48.48,0,0,1,.36-.14h4V60.08H78.24a2,2,0,0,0-2.14,2.14v.5a2,2,0,0,0,2.14,2.14h3.07v.5a.48.48,0,0,1-.5.5c-1.11,0-2.64-.07-4.57-.21v1.86c1.93.19,3.74.28,5.43.28a2,2,0,0,0,2.14-2.14v-.57a2,2,0,0,0-2.14-2.14Z"/><text class="cls-31" transform="translate(92.43 37.82)">中山田徑</text><text class="cls-32" transform="translate(217.43 29.71)">N<tspan class="cls-33" x="4.56" y="0">S</tspan><tspan class="cls-34" x="8.22" y="0">Y</tspan><tspan x="11.62" y="0">SU </tspan><tspan class="cls-35" x="21.29" y="0">F</tspan><tspan class="cls-36" x="24.69" y="0">r</tspan><tspan x="27.24" y="0">eshman </tspan><tspan class="cls-37" x="52.33" y="0">A</tspan><tspan x="56.1" y="0">thl</tspan><tspan class="cls-38" x="64.39" y="0">e</tspan><tspan class="cls-39" x="67.84" y="0">tics Championship</tspan></text><text class="cls-40" transform="translate(216.32 39.64)">フ<tspan class="cls-41" x="9.14" y="0">レ</tspan><tspan class="cls-42" x="18.04" y="0">ッ</tspan><tspan class="cls-43" x="27.3" y="0">シュ</tspan><tspan class="cls-44" x="45.08" y="0">マ</tspan><tspan class="cls-45" x="54.46" y="0">ン</tspan><tspan class="cls-46" x="64.12" y="0">陸上競技大会</tspan></text><text class="cls-47" transform="translate(217.12 21.82)">新生盃田徑暨隊員選拔賽</text><text class="cls-48" transform="translate(93.3 67.15)">N<tspan class="cls-49" x="19.88" y="0">SY</tspan><tspan x="51.3" y="0">S</tspan><tspan class="cls-50" x="67.97" y="0">U</tspan><tspan x="87.5" y="0">A N</tspan><tspan class="cls-51" x="130.73" y="0">F</tspan><tspan class="cls-52" x="145.35" y="0">A</tspan><tspan x="162.25" y="0">C 2021</tspan></text><text class="cls-53" transform="translate(364.96 43.4)">場地配置圖</text><text class="cls-54" transform="translate(364.96 66.96)">Si<tspan class="cls-55" x="18.56" y="0">t</tspan><tspan x="26.58" y="0">e map 会</tspan><tspan class="cls-56" x="111.26" y="0">場</tspan><tspan class="cls-57" x="130.26" y="0">マ</tspan><tspan class="cls-58" x="148" y="0">ッ</tspan><tspan class="cls-59" x="166.08" y="0">プ</tspan></text><rect class="cls-60" x="11.37" y="508.91" width="97.75" height="153.34"/><text class="cls-61" transform="translate(22.55 583.87)">游泳池<tspan class="cls-62"><tspan x="0" y="10.8">Swimming pool</tspan></tspan></text><rect class="cls-60" x="11.37" y="214.98" width="97.75" height="153.34"/><text class="cls-61" transform="translate(22.55 289.94)">網球場<tspan class="cls-62"><tspan class="cls-63" x="0" y="10.8">T</tspan><tspan x="4.88" y="10.8">ennis Court</tspan></tspan></text></g></svg>